<svg xmlns="http://www.w3.org/2000/svg" width="40" height="40" viewBox="0 0 40 40"><g><g opacity=".5"><g opacity=".5"><path fill="#315293" d="M23.463 36.993a8.186 8.186 0 0 1-6.901-.2l-7.11-3.554v-8.925l3.504-1a3.507 3.507 0 0 1 2.54.235l9.72 4.86a1.173 1.173 0 0 1-1.048 2.096l-5.8-2.899a3.533 3.533 0 0 0-4.328.96 1.171 1.171 0 1 0 1.837 1.456c.342-.432.949-.566 1.442-.32l5.8 2.9a3.52 3.52 0 0 0 3.925-.53l9-3c.585-.195 1.28.06 1.526.637a1.17 1.17 0 0 1-.613 1.537zM7.109 35.326H2.344V21.254h3.593c.647 0 1.172.526 1.172 1.172zm28.183-8.477l-7.096 2.366a3.525 3.525 0 0 0-1.937-2.903l-9.718-4.859a5.845 5.845 0 0 0-4.23-.393l-2.9.828a3.52 3.52 0 0 0-3.474-2.978H1.172C.525 18.91 0 19.435 0 20.082v16.406c0 .647.525 1.172 1.172 1.172H8.28c.647 0 1.172-.525 1.172-1.172v-.629l6.058 3.03a10.524 10.524 0 0 0 8.868.26l13.489-5.747a3.513 3.513 0 0 0 1.847-4.615c-.742-1.736-2.718-2.506-4.423-1.938z"/></g><g opacity=".5"><path fill="#315293" d="M25.854 8.362a1.172 1.172 0 1 1-2.344 0 1.172 1.172 0 0 1 2.344 0z"/></g><g opacity=".5"><path fill="#315293" d="M30.543 13.042a1.172 1.172 0 1 1-2.343 0 1.172 1.172 0 0 1 2.343 0z"/></g><g opacity=".5"><path fill="#315293" d="M30.208 7.533a1.172 1.172 0 0 0-1.657 0l-4.688 4.688a1.171 1.171 0 1 0 1.657 1.657l4.688-4.688c.458-.457.458-1.2 0-1.657z"/></g><g opacity=".5"><path fill="#315293" d="M20 14.218c.646 0 1.171-.524 1.171-1.171V2.344H32.89v10.703c0 .647.524 1.171 1.172 1.171h1.407l-8.436 6.705-8.38-6.705zm-5.42-.256l11.718 9.374a1.17 1.17 0 0 0 1.461.003l11.797-9.375a1.172 1.172 0 0 0-.73-2.09h-3.593V1.173C35.233.525 34.708 0 34.062 0H19.999c-.647 0-1.172.525-1.172 1.172v10.703h-3.515a1.171 1.171 0 0 0-.732 2.087z"/></g></g></g></svg>