<svg xmlns="http://www.w3.org/2000/svg" width="40" height="38" viewBox="0 0 40 38"><g><g><g><path fill="#315293" d="M37.64 34.02c0 .659-.446 1.195-.995 1.195h-1.858c-.55 0-.996-.536-.996-1.195V23.324c0-.66.447-1.195.996-1.195h1.858c.549 0 .996.536.996 1.195zm-9.846.765c-3.58.835-5.734.801-9.719.801-4.863 0-7.212-.08-10.171-3.505l-5.3-6.544c-.921-1.223.748-2.666 1.82-1.557l3.885 4.295c1.027 1.104 2.318 1.71 3.91 1.747h10.77c.65 0 1.176-.537 1.176-1.199s-.526-1.198-1.176-1.198H12.423v-1.816c0-.516.412-.936.92-.936h5.439c1.225.09 2.994-.953 4.072-1.438a6.865 6.865 0 0 1 6.12.1l2.464 1.274v9.088zM15 2.405V7.43H5.373V2.405zm7.424 0V7.43h-5.07V2.405zm2.353 5.035V2.405h9.763V7.44zm-7.424 2.385h5.07v3.202h-5.07zm12.684 11.573a9.174 9.174 0 0 0-8.175-.135c-.714.286-2.272 1.246-3.08 1.214h-5.44c-1.804 0-3.272 1.494-3.272 3.33v.873l-.03-.032-3.885-4.291c-.235-.26-.499-.477-.782-.652V9.825H15v4.39c0 .66.527 1.197 1.177 1.197H23.6c.65 0 1.177-.536 1.177-1.197v-4.39h9.763v9.92c-1.375.108-2.521 1.109-2.935 2.463zm6.856-1.653V1.207c0-.66-.527-1.197-1.177-1.197H4.196c-.65 0-1.176.536-1.176 1.197v20.015a3.527 3.527 0 0 0-1.614.68C-.14 23.018-.507 25.518.79 27.059l5.3 6.539c3.28 3.907 6.764 4.386 11.944 4.386 4.445 0 6.433.02 10.307-.878l3.772-.919c.612.87 1.583 1.433 2.675 1.433h1.858c1.846 0 3.349-1.611 3.349-3.59V23.324c0-1.891-1.37-3.444-3.101-3.58z"/></g></g></g></svg>