<svg xmlns="http://www.w3.org/2000/svg" width="40" height="40" viewBox="0 0 40 40"><g><g><g><path fill="#36558f" d="M37.5 37.658h-9.375v-4.375c0-1.283-.327-2.49-.902-3.544a5.036 5.036 0 0 1 3.636-1.534h1.563c2.8 0 5.078 2.278 5.078 5.078zm-11.719 0H14.063v-4.375c0-2.8 2.278-5.078 5.078-5.078h1.562c2.8 0 5.078 2.278 5.078 5.078zM2.344 33.283c0-2.8 2.278-5.078 5.078-5.078h1.562c1.388 0 2.685.553 3.637 1.534a7.376 7.376 0 0 0-.902 3.544v4.375H2.344zm5.86-12.11a2.346 2.346 0 0 1 2.343 2.345 2.346 2.346 0 0 1-2.344 2.343 2.346 2.346 0 0 1-2.344-2.343 2.346 2.346 0 0 1 2.344-2.344zm11.718 0a2.346 2.346 0 0 1 2.344 2.345 2.346 2.346 0 0 1-2.344 2.343 2.346 2.346 0 0 1-2.344-2.343 2.346 2.346 0 0 1 2.344-2.344zm11.714 0a2.344 2.344 0 0 1 0 4.688 2.344 2.344 0 0 1 0-4.687zm3.664 5.27a4.664 4.664 0 0 0 1.028-2.925 4.693 4.693 0 0 0-4.687-4.688 4.693 4.693 0 0 0-4.688 4.688c0 1.103.384 2.118 1.025 2.92a7.345 7.345 0 0 0-2.2 1.434 7.444 7.444 0 0 0-2.197-1.43 4.664 4.664 0 0 0 1.028-2.924 4.693 4.693 0 0 0-4.687-4.688 4.693 4.693 0 0 0-4.688 4.688c0 1.105.386 2.122 1.029 2.924a7.444 7.444 0 0 0-2.197 1.43 7.358 7.358 0 0 0-2.2-1.434 4.664 4.664 0 0 0 1.025-2.92 4.693 4.693 0 0 0-4.688-4.688 4.693 4.693 0 0 0-4.687 4.688c0 1.105.385 2.122 1.028 2.924A7.433 7.433 0 0 0 0 33.283v5.547c0 .647.525 1.172 1.172 1.172h37.5c.647 0 1.172-.525 1.172-1.172v-5.547a7.433 7.433 0 0 0-4.544-6.84z"/></g><g><path fill="#36558f" d="M11.724 3.516c0-.647.525-1.172 1.172-1.172h14.062c.646 0 1.172.525 1.172 1.172v7.109c0 .646-.526 1.172-1.172 1.172h-7.031c-.254 0-.5.082-.703.234l-2.813 2.11v-1.172c0-.647-.524-1.172-1.172-1.172h-2.343a1.173 1.173 0 0 1-1.172-1.172zm1.172 10.625h1.171v2.343c0 .97 1.109 1.513 1.876.938l4.375-3.281h6.64a3.52 3.52 0 0 0 3.516-3.516v-7.11A3.52 3.52 0 0 0 26.958 0H12.896A3.52 3.52 0 0 0 9.38 3.516v7.109a3.52 3.52 0 0 0 3.516 3.516z"/></g></g></g></svg>