<svg xmlns="http://www.w3.org/2000/svg" width="40" height="37" viewBox="0 0 40 37"><g><g><g><path fill="#315293" d="M23.377 23.288c-.209-1.66.346-3.027 1.776-4.452 1.577-1.577 3.2-2.427 5.5-2.82-.394 2.298-1.245 3.92-2.824 5.498-1.427 1.427-2.795 1.975-4.452 1.774zm.65 2.538c2.035 0 3.872-.844 5.572-2.547 2.311-2.311 3.428-4.883 3.733-8.596a1.247 1.247 0 0 0-1.348-1.349c-3.712.305-6.284 1.422-8.595 3.734-2.252 2.245-3 4.726-2.29 7.588.111.45.461.802.911.912a8.379 8.379 0 0 0 2.017.258z"/></g><g><path fill="#315293" d="M19.58 28.335a1.25 1.25 0 0 1-.883-2.135l5.833-5.834a1.25 1.25 0 1 1 1.768 1.769l-5.833 5.833a1.247 1.247 0 0 1-.885.367z"/></g><g><path fill="#315293" d="M15.47 31.67H9.587a2.92 2.92 0 0 1-2.917-2.917V14.587a2.92 2.92 0 0 1 2.917-2.917h9.166a2.925 2.925 0 0 1 2.897 2.685 1.25 1.25 0 0 1-1.148 1.343 1.268 1.268 0 0 1-1.345-1.148.42.42 0 0 0-.404-.38H9.587a.421.421 0 0 0-.417.417v14.166c0 .227.19.417.417.417h5.883a1.25 1.25 0 0 1 0 2.5z"/></g><g><path fill="#315293" d="M35.417 2.5c1.148 0 2.083.935 2.083 2.083v27.5a2.086 2.086 0 0 1-2.083 2.084H4.583A2.086 2.086 0 0 1 2.5 32.083v-27.5c0-1.148.935-2.083 2.083-2.083zM40 32.083v-27.5A4.587 4.587 0 0 0 35.417 0H4.583A4.587 4.587 0 0 0 0 4.583v27.5a4.587 4.587 0 0 0 4.583 4.584h30.834A4.587 4.587 0 0 0 40 32.083z"/></g><g><path fill="#315293" d="M38.75 8.33H1.25a1.25 1.25 0 0 1 0-2.5h37.5a1.25 1.25 0 0 1 0 2.5z"/></g></g></g></svg>