<svg xmlns="http://www.w3.org/2000/svg" width="40" height="40" viewBox="0 0 40 40"><g><g><g><path fill="#315293" d="M24.19 22.837a3.748 3.748 0 0 0 1.104-2.787 3.94 3.94 0 0 0-.717-2.15l.661-.683a1.56 1.56 0 0 0-2.24-2.169l-.669.692a4.354 4.354 0 0 0-2.23-.643h-.049c-1.15 0-2.233.45-3.054 1.272l-.246.246c-1.732 1.733-1.75 4.532-.042 6.242l1.01 1.01c.248.247.386.568.39.903.003.327-.125.636-.36.871l-.115.116c-.48.478-1.228.452-1.742-.062l-1.642-1.642a.812.812 0 0 1-.251-.553.649.649 0 0 1 .202-.487 1.56 1.56 0 0 0-2.204-2.205 3.758 3.758 0 0 0-1.115 2.759c.02.952.392 1.858 1.05 2.57l-.585.564a1.558 1.558 0 1 0 2.164 2.244l.653-.63a4.375 4.375 0 0 0 2.654.909c1.092 0 2.178-.42 3.02-1.263l.115-.115a4.302 4.302 0 0 0 1.273-3.109 4.394 4.394 0 0 0-1.302-3.075l-1.01-1.01c-.485-.485-.467-1.324.041-1.832l.246-.246c.301-.302.633-.362.865-.36.33.004.649.142.897.39l.954.955a.86.86 0 0 1 .262.582.653.653 0 0 1-.193.492 1.558 1.558 0 1 0 2.205 2.204zM36.822 3.794c.001 1.743-.63 3.156-1.914 4.274l-.145-1.42a1.559 1.559 0 0 0-1.393-1.394l-1.808-.183c1.595-1.523 4.231-1.896 4.702-1.951a.615.615 0 0 1 .558.611zM36.08.005c-.255.021-5.956.545-8.098 4.702l-7.735-.786a6.208 6.208 0 0 0-5.04 1.795L1.858 19.018a6.244 6.244 0 0 0 .002 8.812l10.236 10.245a6.277 6.277 0 0 0 4.45 1.847c1.586 0 3.166-.6 4.368-1.8a1.559 1.559 0 0 0-2.204-2.205c-1.204 1.203-3.182 1.182-4.408-.045L4.066 25.627a3.12 3.12 0 0 1-.004-4.404L17.41 7.921a3.106 3.106 0 0 1 2.521-.9l11.86 1.206.155 1.516c-2.16.805-4.216.934-4.263.937a1.559 1.559 0 0 0 .166 3.113c.1-.006 2.094-.12 4.421-.864l.726 7.125a3.105 3.105 0 0 1-.895 2.518l-7.604 7.492a1.559 1.559 0 0 0 2.188 2.22l7.609-7.496.007-.008a6.21 6.21 0 0 0 1.797-5.042l-.828-8.124c1.048-.614 1.932-1.337 2.639-2.161 1.35-1.575 2.033-3.48 2.031-5.66v-.062A3.735 3.735 0 0 0 36.21 0c-.044 0-.087.002-.13.005z"/></g></g></g></svg>