<svg xmlns="http://www.w3.org/2000/svg" width="40" height="35" viewBox="0 0 40 35"><g><g><g><path fill="#315293" d="M29.117 25.857a.737.737 0 0 1-.735.735h-5.428a.737.737 0 0 1-.735-.735v-4.163c0-.408.335-.735.735-.735h5.428c.409 0 .735.335.735.735zM28.382 19h-5.428a2.697 2.697 0 0 0-2.694 2.694v4.163a2.697 2.697 0 0 0 2.694 2.694h5.428a2.697 2.697 0 0 0 2.694-2.694v-4.163A2.697 2.697 0 0 0 28.382 19z"/></g><g><path fill="#315293" d="M34.22 15.194a3.76 3.76 0 0 1-3.706-3.093h7.42a3.783 3.783 0 0 1-3.714 3.093zM18.416 32.922V22.353A3.36 3.36 0 0 0 15.061 19h-2.849a3.36 3.36 0 0 0-3.355 3.354V32.93h-3.47V17.155a5.724 5.724 0 0 0 5.094-2.522 5.724 5.724 0 0 0 9.503 0 5.709 5.709 0 0 0 9.486 0 5.724 5.724 0 0 0 4.75 2.53c.115 0 .22-.008.335-.008v15.767zm-7.591-.01V22.355c0-.766.621-1.394 1.398-1.394h2.854c.769 0 1.398.62 1.398 1.394v10.557zm-8.8-20.819h7.42a3.769 3.769 0 0 1-3.714 3.093 3.752 3.752 0 0 1-3.707-3.093zm16.914 0a3.76 3.76 0 0 1-3.706 3.093 3.775 3.775 0 0 1-3.715-3.093zm9.494 0a3.76 3.76 0 0 1-3.706 3.093 3.76 3.76 0 0 1-3.707-3.093zM7.486 1.968h24.971l4.645 8.164H2.849zm32.465 9.46a.91.91 0 0 0-.13-.481L33.877.498a.985.985 0 0 0-.85-.498H6.915a.968.968 0 0 0-.849.498L.131 10.947a.99.99 0 0 0-.131.482 5.73 5.73 0 0 0 3.429 5.24v17.233c0 .539.44.98.98.98h31.126c.538 0 .98-.441.98-.98v-17.11c0-.041 0-.074-.009-.106a5.746 5.746 0 0 0 3.445-5.257z"/></g></g></g></svg>