<svg width="40" height="36" viewBox="0 0 40 36" fill="none" xmlns="http://www.w3.org/2000/svg">
<path fill-rule="evenodd" clip-rule="evenodd" d="M11.5566 27.5091C9.81 27.4199 9.84289 24.9632 11.5566 24.8778C14.7674 24.889 21.4561 24.8874 27.0665 24.886C29.9382 24.8853 32.5274 24.8847 34.2231 24.8859C35.593 24.8859 36.7651 23.9536 37.0732 22.6189L39.9173 10.3032C40.0802 9.59808 39.9158 8.86823 39.4664 8.30097C39.017 7.7337 38.3443 7.40378 37.6206 7.40378C36.3031 7.40378 28.5347 7.37068 20.8657 7.338C16.806 7.3207 12.7741 7.30352 9.7418 7.29144L8.35312 2.13886C8.01976 0.907529 6.89609 0.0476074 5.62047 0.0476074H1.17188C0.524688 0.0476074 0 0.572295 0 1.21948C0 1.86667 0.524688 2.39136 1.17188 2.39136H5.62047C5.84008 2.39136 6.03344 2.5394 6.09055 2.75011L11.4237 22.5373C10.486 22.5714 9.61258 22.9528 8.95023 23.6248C8.2543 24.331 7.88055 25.2659 7.89781 26.2572C7.93234 28.2398 9.57367 29.8528 11.5566 29.8528H13.2654C13.0114 30.3859 12.8688 30.9819 12.8688 31.6107C12.8688 33.8724 14.7088 35.7124 16.9705 35.7124C19.2323 35.7124 21.0723 33.8724 21.0723 31.6107C21.0723 30.9818 20.9296 30.3859 20.6756 29.8528H28.0753C27.8216 30.3857 27.679 30.9814 27.679 31.61C27.679 33.8717 29.5191 35.7117 31.7807 35.7117C34.0424 35.7117 35.8825 33.8717 35.8825 31.61C35.8825 30.957 35.7283 30.3395 35.4556 29.7909C35.9194 29.6347 36.2537 29.1973 36.2537 28.681C36.2537 28.0338 35.7291 27.5091 35.0819 27.5091H11.5566ZM18.7284 31.6107C18.7284 32.5801 17.9398 33.3687 16.9705 33.3687C16.0011 33.3687 15.2125 32.5801 15.2125 31.6107C15.2125 30.6419 16.0003 29.8536 16.969 29.8528H16.972C17.9406 29.8536 18.7284 30.6419 18.7284 31.6107ZM30.0228 31.6101C30.0228 32.5794 30.8115 33.3681 31.7808 33.3681C32.7502 33.3681 33.5388 32.5794 33.5389 31.6101C33.5389 30.6503 32.7656 29.8682 31.8094 29.8528H31.7523C30.7961 29.8682 30.0228 30.6503 30.0228 31.6101ZM37.6292 9.75612C37.6361 9.76478 37.6352 9.76892 37.6337 9.77551L37.6337 9.77573L36.4353 14.9652H32.3773L33.0684 9.72901L37.6112 9.74729L37.6115 9.7473C37.6183 9.74745 37.6224 9.74754 37.6292 9.75612ZM25.5476 17.3089V22.5421H29.0134L29.704 17.3089H25.5476ZM19.7365 22.5421L19.0402 17.3089H23.2038V22.5421H19.7365ZM14.338 22.5421H14.3417H17.372L16.6758 17.3089H12.442L13.7265 22.0749C13.8008 22.3493 14.0524 22.542 14.338 22.5421ZM18.7284 14.9653L18.0236 9.66847L23.2038 9.68933V14.9653H18.7284ZM25.5476 9.69878V14.9653H30.0133L30.7055 9.71956L25.5476 9.69878ZM15.6579 9.65886L16.3639 14.9652H11.8102L10.3743 9.63753L15.6579 9.65886ZM31.3773 22.5421H34.2231C34.4954 22.5421 34.7283 22.3568 34.7895 22.0915L35.894 17.3089H32.068L31.3773 22.5421Z" fill="#315293"/>
</svg>
