<svg xmlns="http://www.w3.org/2000/svg" width="25" height="16" viewBox="0 0 25 16"><g><g><g><path fill="#41479b" d="M23.96 15.984H.42a.42.42 0 0 1-.42-.42V.43A.42.42 0 0 1 .42.01h23.54a.42.42 0 0 1 .421.42v15.133a.42.42 0 0 1-.42.42z"/></g><g><path fill="#f5f5f5" d="M11.77.01h-.73L7.146 2.561V.01H5.044v2.551L1.15.01H.42A.42.42 0 0 0 0 .43v.334l3.34 2.188H0v2.102h3.34L0 7.243v.333c0 .233.188.42.42.42h.73l3.894-2.55v2.55h2.102v-2.55l3.894 2.55h.73a.42.42 0 0 0 .42-.42v-.333L8.85 5.054h3.34V2.953H8.85l3.34-2.19V.43a.42.42 0 0 0-.42-.42z"/></g><g><g><path fill="#ff4b55" d="M12.19 3.373H6.726V.01H5.465v3.363H0v1.261h5.465v3.363h1.26V4.634h5.465z"/></g><g><path fill="#ff4b55" d="M4.624 2.951L.2.08c-.117.074-.2.2-.2.35V.45l3.852 2.5z"/></g><g><path fill="#ff4b55" d="M7.922 2.952L12.13.221a.414.414 0 0 0-.356-.211h-.09L7.15 2.952z"/></g><g><path fill="#ff4b55" d="M4.26 5.06L.06 7.786a.415.415 0 0 0 .36.217H.5L5.031 5.06H4.26z"/></g><g><path fill="#ff4b55" d="M12.189 7.615L8.252 5.06H7.48l4.47 2.902a.416.416 0 0 0 .239-.347z"/></g></g><g><g><path fill="#f5f5f5" d="M6.225 10.287l.317 1.048 1.017-.405a.094.094 0 0 1 .112.14l-.62.902.95.542a.094.094 0 0 1-.04.176l-1.092.077.168 1.081a.094.094 0 0 1-.162.079l-.74-.807-.741.807a.094.094 0 0 1-.163-.079l.169-1.081-1.092-.077a.094.094 0 0 1-.04-.176l.95-.542-.62-.901a.094.094 0 0 1 .112-.141l1.017.405.317-1.048c.027-.09.154-.09.18 0z"/></g><g><path fill="#f5f5f5" d="M18.73 2.843l.154.511.497-.197a.046.046 0 0 1 .055.069l-.303.44.464.265c.04.022.026.083-.02.086l-.533.037.082.528a.046.046 0 0 1-.08.039l-.36-.394-.363.394a.046.046 0 0 1-.079-.039l.082-.528-.533-.037a.046.046 0 0 1-.02-.086l.465-.265-.304-.44a.046.046 0 0 1 .055-.07l.497.198.155-.511c.013-.044.075-.044.088 0z"/></g><g><path fill="#f5f5f5" d="M15.27 6.773l.154.511.497-.197a.046.046 0 0 1 .055.069l-.303.44.464.265c.04.022.026.083-.02.086l-.533.037.082.528a.046.046 0 0 1-.08.039l-.36-.394-.363.394a.046.046 0 0 1-.079-.039l.082-.528-.533-.037a.046.046 0 0 1-.02-.086l.465-.265-.304-.44a.046.046 0 0 1 .055-.07l.497.198.155-.511c.013-.044.075-.044.088 0z"/></g><g><path fill="#f5f5f5" d="M22 5.093l.154.511.497-.197a.046.046 0 0 1 .055.069l-.303.44.464.265a.046.046 0 0 1-.02.086l-.533.037.082.528c.007.045-.048.072-.08.039l-.36-.394-.362.394a.046.046 0 0 1-.08-.039l.082-.528-.533-.037a.046.046 0 0 1-.02-.086l.465-.265-.304-.44a.046.046 0 0 1 .055-.07l.497.198.155-.511c.013-.044.075-.044.088 0z"/></g><g><path fill="#f5f5f5" d="M18.73 11.813l.154.511.497-.197a.046.046 0 0 1 .055.069l-.303.44.464.265c.04.022.026.083-.02.086l-.533.037.082.528a.046.046 0 0 1-.08.039l-.36-.394-.363.394a.046.046 0 0 1-.079-.039l.082-.528-.533-.037a.046.046 0 0 1-.02-.086l.465-.265-.304-.44a.046.046 0 0 1 .055-.07l.497.198.155-.511c.013-.044.075-.044.088 0z"/></g><g><path fill="#f5f5f5" d="M19.93 7.686l-.124.373-.393.003a.053.053 0 0 0-.031.096l.316.234-.119.375a.053.053 0 0 0 .082.059l.32-.229.32.229c.041.03.096-.01.081-.06l-.119-.374.317-.234a.053.053 0 0 0-.031-.096l-.394-.003-.124-.373a.053.053 0 0 0-.1 0z"/></g></g></g></g></svg>