<svg xmlns="http://www.w3.org/2000/svg" width="339.007" height="334.206" viewBox="0 0 339.007 334.206">
  <g id="Financial_data-bro" data-name="Financial data-bro" transform="translate(-0.032 -0.087)">
    <g id="freepik--background-simple--inject-29">
      <path id="Path" d="M7.255,104.093s-21.034,54.32,8.525,109.016,90.442,83.592,139.171,108.3,99.329,12.675,123.373-27.793-8.933-69.355-8.978-127.062,8.638-72.984-22.633-121.736-107.93-59.548-165.9-23.388S7.255,104.093,7.255,104.093Z" transform="translate(25.133 0.087)" fill="#fff" opacity="0.7"/>
      <path id="Path-2" data-name="Path" d="M153.308.867c93.55-8.3,93.739,44.459,135.9,93.648S340.393,166,324.5,222.7,255.044,323.85,188.781,298.667s-104.218-1-146.014-23.388S-14.57,209.7,16.053,158.786,37.924,11.143,153.308.867Z" transform="translate(0.032 15.972)" fill="#adc7f7"/>
      <path id="Path-3" data-name="Path" d="M153.308.867c93.55-8.3,93.739,44.459,135.9,93.648S340.393,166,324.5,222.7,255.044,323.85,188.781,298.667s-104.218-1-146.014-23.388S-14.57,209.7,16.053,158.786,37.924,11.143,153.308.867Z" transform="translate(0.032 15.972)" fill="#fff" opacity="0.7"/>
    </g>
    <g id="freepik--Graphics--inject-29" transform="translate(1.509 18.861)">
      <rect id="Rectangle" width="23.41" height="23.41" rx="4.581" transform="translate(153.924 5.479) rotate(-11.89)" fill="none" stroke="#263238" stroke-linecap="round" stroke-linejoin="round" stroke-miterlimit="10" stroke-width="1.2"/>
      <path id="Path-4" data-name="Path" d="M0,0,1.962,9.34" transform="translate(166.814 9.845)" fill="none" stroke="#263238" stroke-linecap="round" stroke-linejoin="round" stroke-miterlimit="10" stroke-width="1.2"/>
      <path id="Path-5" data-name="Path" d="M9.34,0,0,1.969" transform="translate(163.125 13.527)" fill="none" stroke="#263238" stroke-linecap="round" stroke-linejoin="round" stroke-miterlimit="10" stroke-width="1.2"/>
      <rect id="Rectangle-2" data-name="Rectangle" width="23.41" height="23.41" rx="4.581" transform="translate(309.088 170.054) rotate(-11.89)" fill="none" stroke="#263238" stroke-linecap="round" stroke-linejoin="round" stroke-miterlimit="10" stroke-width="1.2"/>
      <path id="Path-6" data-name="Path" d="M5.213,0,0,8" transform="translate(320.357 175.082)" fill="none" stroke="#263238" stroke-linecap="round" stroke-linejoin="round" stroke-miterlimit="10" stroke-width="1.2"/>
      <path id="Path-7" data-name="Path" d="M8,5.221,0,0" transform="translate(318.961 176.471)" fill="none" stroke="#263238" stroke-linecap="round" stroke-linejoin="round" stroke-miterlimit="10" stroke-width="1.2"/>
      <rect id="Rectangle-3" data-name="Rectangle" width="23.452" height="23.452" rx="4.581" transform="matrix(0.998, 0.06, -0.06, 0.998, 100.847, 265.046)" fill="none" stroke="#263238" stroke-linecap="round" stroke-linejoin="round" stroke-miterlimit="10" stroke-width="1.2"/>
      <path id="Path-8" data-name="Path" d="M9.536.653,0,.1" transform="translate(107.613 276.234)" fill="none" stroke="#263238" stroke-linecap="round" stroke-linejoin="round" stroke-miterlimit="10" stroke-width="1.2"/>
      <rect id="Rectangle-4" data-name="Rectangle" width="23.41" height="23.41" rx="4.581" transform="translate(7.984 150.574) rotate(18.33)" fill="none" stroke="#263238" stroke-linecap="round" stroke-linejoin="round" stroke-miterlimit="10" stroke-width="1.2"/>
      <path id="Path-9" data-name="Path" d="M11.943,0,0,6" transform="translate(9.446 162.37)" fill="none" stroke="#263238" stroke-linecap="round" stroke-linejoin="round" stroke-miterlimit="10" stroke-width="1.2"/>
      <path id="Path-10" data-name="Path" d="M3.168.942A1.66,1.66,0,1,1,2.2.085a1.667,1.667,0,0,1,.972.857Z" transform="translate(11.37 158.999)" fill="none" stroke="#263238" stroke-linecap="round" stroke-linejoin="round" stroke-miterlimit="10" stroke-width="1.2"/>
      <path id="Path-11" data-name="Path" d="M3.168.942A1.66,1.66,0,1,1,2.2.085a1.667,1.667,0,0,1,.972.857Z" transform="translate(16.108 168.399)" fill="none" stroke="#263238" stroke-linecap="round" stroke-linejoin="round" stroke-miterlimit="10" stroke-width="1.2"/>
    </g>
    <g id="freepik--Coins--inject-29" transform="translate(129.763 245.192)">
      <path id="Path-12" data-name="Path" d="M25.333,21.794A13.9,13.9,0,1,1,21.788,2.458a13.9,13.9,0,0,1,3.546,19.336Z" transform="translate(20.461 13.506)" fill="#adc7f7"/>
      <g id="Group" transform="translate(20.37 13.58)">
        <path id="Path-13" data-name="Path" d="M21.313,18.346A11.694,11.694,0,1,1,18.34,2.073a11.694,11.694,0,0,1,2.972,16.273Z" transform="translate(2.301 2.122)" fill="rgba(0,0,0,0.7)" opacity="0.3"/>
        <path id="Path-14" data-name="Path" d="M21.313,18.346A11.694,11.694,0,1,1,18.34,2.073a11.694,11.694,0,0,1,2.972,16.273Z" transform="translate(2.301 2.122)" fill="none" stroke="#263238" stroke-linecap="round" stroke-linejoin="round" stroke-miterlimit="10" stroke-width="1.2"/>
        <path id="Path-15" data-name="Path" d="M8.17.807,8.736,0l1.4.966-.566.815c1.049,1.094,1.026,2.459,0,3.938l-.241.347L7.709,4.942l.317-.453c.536-.754.43-1.29-.113-1.667s-1.064-.3-1.607.483-.6,1.509-.083,3.259c.626,2.1.513,3.289-.347,4.527-1.026,1.509-2.324,1.992-3.712,1.4l-.551.792L.233,12.328l.551-.8c-1.064-1.1-1.026-2.482,0-3.968L1.3,6.805,2.919,7.929l-.588.853c-.543.754-.392,1.3.151,1.682s1.086.332,1.63-.453.611-1.554.083-3.259c-.641-2.075-.521-3.282.347-4.527C5.514.762,6.789.241,8.17.807Z" transform="translate(8.82 7.167)" fill="#adc7f7" stroke="#263238" stroke-linecap="round" stroke-linejoin="round" stroke-miterlimit="10" stroke-width="1.2"/>
        <path id="Path-16" data-name="Path" d="M10.03,2.045A18.725,18.725,0,0,1,.871,18.152,13.889,13.889,0,0,1,9.924,0a18.265,18.265,0,0,1,.106,2.045Z" transform="translate(0.087 0.505)" fill="rgba(0,0,0,0.7)" opacity="0.2"/>
      </g>
      <path id="Path-17" data-name="Path" d="M25.333,21.794A13.9,13.9,0,1,1,21.788,2.458a13.9,13.9,0,0,1,3.546,19.336Z" transform="translate(20.461 13.506)" fill="none" stroke="#263238" stroke-linecap="round" stroke-linejoin="round" stroke-miterlimit="10" stroke-width="1.2"/>
      <circle id="Oval" cx="13.904" cy="13.904" r="13.904" transform="translate(0.611 1.796)" fill="#adc7f7" stroke="#263238" stroke-linecap="round" stroke-linejoin="round" stroke-miterlimit="10" stroke-width="1.2"/>
      <circle id="Oval-2" data-name="Oval" cx="11.694" cy="11.694" r="11.694" transform="translate(2.822 4.006)" fill="rgba(0,0,0,0.7)" opacity="0.3"/>
      <circle id="Oval-3" data-name="Oval" cx="11.694" cy="11.694" r="11.694" transform="translate(2.822 4.006)" fill="none" stroke="#263238" stroke-linecap="round" stroke-linejoin="round" stroke-miterlimit="10" stroke-width="1.2"/>
      <path id="Path-18" data-name="Path" d="M2.278.981V0H3.983V.981c1.509.309,2.263,1.441,2.263,3.244v.392H4.27V4.066c0-.951-.377-1.313-1.041-1.313s-1.041.362-1.041,1.313S2.565,5.673,3.968,6.8C5.673,8.163,6.232,9.2,6.232,10.721c0,1.8-.754,2.965-2.263,3.267v.966H2.263v-.966C.754,13.686,0,12.524,0,10.721V9.815H1.969v1.041c0,.951.415,1.29,1.079,1.29s1.086-.339,1.086-1.29-.377-1.63-1.788-2.731C.641,6.775.083,5.719.083,4.195.075,2.444.815,1.305,2.278.981Z" transform="translate(11.384 8.208)" fill="#adc7f7" stroke="#263238" stroke-linecap="round" stroke-linejoin="round" stroke-miterlimit="10" stroke-width="1.2"/>
      <circle id="Oval-4" data-name="Oval" cx="13.904" cy="13.904" r="13.904" transform="translate(61.635 24.083) rotate(-57.35)" fill="#adc7f7" stroke="#263238" stroke-linecap="round" stroke-linejoin="round" stroke-miterlimit="10" stroke-width="1.2"/>
      <path id="Path-19" data-name="Path" d="M20.261,3.74A11.679,11.679,0,1,1,12.127.008,11.694,11.694,0,0,1,20.261,3.74Z" transform="translate(69.147 8.187)" fill="rgba(0,0,0,0.7)" opacity="0.3"/>
      <path id="Path-20" data-name="Path" d="M20.261,3.74A11.679,11.679,0,1,1,12.127.008,11.694,11.694,0,0,1,20.261,3.74Z" transform="translate(69.147 8.187)" fill="none" stroke="#263238" stroke-linecap="round" stroke-linejoin="round" stroke-miterlimit="10" stroke-width="1.2"/>
      <path id="Path-21" data-name="Path" d="M.671,1.916,0,1.162,1.245,0l.671.754C3.214,0,4.542.287,5.764,1.607l.287.3L4.61,3.252l-.377-.4c-.649-.694-1.169-.7-1.652-.249S2.06,3.576,2.7,4.27s1.381.92,3.169.792c2.18-.166,3.32.2,4.353,1.313,1.222,1.32,1.441,2.693.566,3.923l.656.709-1.252,1.162-.656-.709c-1.305.8-2.648.468-3.87-.853L5.04,9.943,6.488,8.6l.709.754c.649.694,1.184.664,1.675.211s.558-.988-.091-1.682-1.388-.936-3.161-.754c-2.173.174-3.327-.2-4.353-1.32C.053,4.481-.181,3.146.671,1.916Z" transform="translate(75.119 13.784)" fill="#adc7f7" stroke="#263238" stroke-linecap="round" stroke-linejoin="round" stroke-miterlimit="10" stroke-width="1.2"/>
    </g>
    <g id="freepik--right-hand--inject-29" transform="translate(172.766 36.967)">
      <path id="Path-22" data-name="Path" d="M4.745,0s-.06,28.85,0,30.532S7.009,42.347,7.009,42.347L0,55.263l6.036,4.859L17.767,48.593s9.989,6.164,11.814,14.991,12.7,15.255,23.976,39.7S77.7,48.593,77.7,48.593L42.9,4.776Z" transform="translate(27.371 167.674)" fill="rgba(0,0,0,0.7)" opacity="0.2"/>
      <path id="Path-23" data-name="Path" d="M138.077,12.38,127.417,116.4l-6.556,63.991-91.619-9.385-17.827-1.826L0,168.013,10.117,69.257,17.216,0,138.077,12.38Z" transform="translate(0.43 0.302)" fill="#fff"/>
      <g id="Group-2" data-name="Group" transform="translate(0 10.562)">
        <path id="Path-24" data-name="Path" d="M54.133,5.358,1.963.009A1.782,1.782,0,1,0,1.6,3.555L53.77,8.9a1.782,1.782,0,0,0,.362-3.546Z" transform="translate(49.271 0.677)" fill="#263238"/>
        <path id="Path-25" data-name="Path" d="M27.066,2.683.985,0A.891.891,0,1,0,.8,1.777L26.885,4.456a.9.9,0,0,0,.981-.8.883.883,0,0,0-.8-.973Z" transform="translate(62.546 9.275)" fill="#263238"/>
        <path id="Path-26" data-name="Path" d="M85.663,8.682.985.006A.89.89,0,0,0,0,.76a.9.9,0,0,0,.8.981l84.678,8.744a.906.906,0,0,0,.181-1.8Z" transform="translate(32.655 80.048)" fill="#263238"/>
        <path id="Path-27" data-name="Path" d="M99.471,10.092.979.005A.883.883,0,0,0,.006.8a.89.89,0,0,0,.754.981L99.222,11.865a.891.891,0,0,0,.181-1.773Z" transform="translate(18.222 85.013)" fill="#263238"/>
        <path id="Path-28" data-name="Path" d="M71.9,7.27.986.005A.891.891,0,0,0,.8,1.778L71.714,9.043A.891.891,0,0,0,71.9,7.27Z" transform="translate(17.536 91.388)" fill="#263238"/>
        <rect id="Rectangle-5" data-name="Rectangle" width="28.261" height="99.782" transform="matrix(0.102, -0.995, 0.995, 0.102, 14.554, 126.382)" fill="#bfbfbf" stroke="#263238" stroke-miterlimit="10" stroke-width="1.2"/>
        <circle id="Oval-5" data-name="Oval" cx="22.097" cy="22.097" r="22.097" transform="translate(17.687 45.926) rotate(-39.8)" fill="#adc7f7"/>
        <circle id="Oval-6" data-name="Oval" cx="22.097" cy="22.097" r="22.097" transform="translate(17.687 45.926) rotate(-39.8)" fill="#fff" opacity="0.5"/>
        <circle id="Oval-7" data-name="Oval" cx="22.097" cy="22.097" r="22.097" transform="translate(17.687 45.926) rotate(-39.8)" fill="none" stroke="#263238" stroke-miterlimit="10" stroke-width="1.2"/>
        <path id="Path-29" data-name="Path" d="M0,12.984l18.378,9.242A21.124,21.124,0,0,0,15.949,0Z" transform="translate(49.446 35.723)" fill="#fff"/>
        <path id="Path-30" data-name="Path" d="M0,18.65,15.391,6.126A21.064,21.064,0,0,0,6.8,0L4,7.62Z" transform="translate(49.567 29.061)" fill="#adc7f7"/>
        <path id="Path-31" data-name="Path" d="M1.856,0,0,18.2,6.262.988A20.973,20.973,0,0,0,1.856,0Z" transform="translate(49.446 27.824)" fill="#757575"/>
        <path id="Path-32" data-name="Path" d="M20.757,20.867,22.892.074A21.124,21.124,0,0,0,1.73,29.5Z" transform="translate(27.73 27.674)" fill="#999"/>
        <path id="Path-33" data-name="Path" d="M16.922,20.611a21.124,21.124,0,0,0,20.845-11.2L19.065,0,0,8.661A21.124,21.124,0,0,0,16.922,20.611Z" transform="translate(29.74 49.159)" fill="#bfbfbf"/>
        <rect id="Rectangle-6" data-name="Rectangle" width="3.478" height="3.478" rx="0.567" transform="matrix(0.995, 0.102, -0.102, 0.995, 81.282, 34.115)" fill="#adc7f7" stroke="#263238" stroke-miterlimit="10" stroke-width="1.2"/>
        <path id="Path-34" data-name="Path" d="M32.719,4.082.233.754A.4.4,0,0,1,.316,0L32.8,3.267a.4.4,0,0,1-.083.792Z" transform="translate(86.58 35.21)" fill="#263238"/>
        <path id="Path-35" data-name="Path" d="M29.659,3.813.357.795A.4.4,0,0,1,0,.357.392.392,0,0,1,.44,0l29.3,3.018a.4.4,0,0,1-.083.792Z" transform="translate(86.283 36.882)" fill="#263238"/>
        <rect id="Rectangle-7" data-name="Rectangle" width="3.478" height="3.478" rx="0.567" transform="matrix(0.995, 0.102, -0.102, 0.995, 80.488, 41.863)" fill="#757575" stroke="#263238" stroke-linecap="round" stroke-linejoin="round" stroke-miterlimit="10" stroke-width="1.2"/>
        <path id="Path-36" data-name="Path" d="M32.824,4.119.323.792A.4.4,0,0,1,.406,0L32.884,3.327a.407.407,0,0,1,.362.438.4.4,0,0,1-.422.355Z" transform="translate(85.683 42.92)" fill="#263238"/>
        <path id="Path-37" data-name="Path" d="M29.659,3.819.364.8A.4.4,0,1,1,.439,0l29.3,3.018a.4.4,0,0,1-.083.8Z" transform="translate(85.484 44.631)" fill="#263238"/>
        <rect id="Rectangle-8" data-name="Rectangle" width="3.478" height="3.478" rx="0.567" transform="matrix(0.995, 0.102, -0.102, 0.995, 79.695, 49.618)" fill="#999" stroke="#263238" stroke-linecap="round" stroke-linejoin="round" stroke-miterlimit="10" stroke-width="1.2"/>
        <path id="Path-38" data-name="Path" d="M32.835,4.134.394.8A.4.4,0,1,1,.477.008L32.955,3.335a.4.4,0,1,1-.083.8Z" transform="translate(84.858 50.661)" fill="#263238"/>
        <path id="Path-39" data-name="Path" d="M29.659,3.819.357.8A.4.4,0,0,1,0,.363.407.407,0,0,1,.44,0l29.3,3.018a.4.4,0,0,1-.083.8Z" transform="translate(84.691 52.379)" fill="#263238"/>
        <rect id="Rectangle-9" data-name="Rectangle" width="3.478" height="3.478" rx="0.567" transform="matrix(0.995, 0.102, -0.102, 0.995, 78.901, 57.372)" fill="#bfbfbf" stroke="#263238" stroke-miterlimit="10" stroke-width="1.2"/>
        <path id="Path-40" data-name="Path" d="M32.843,4.128.364.8A.4.4,0,0,1,0,.363.407.407,0,0,1,.44,0L32.926,3.336a.4.4,0,1,1-.083.792Z" transform="translate(84.095 58.415)" fill="#263238"/>
        <path id="Path-41" data-name="Path" d="M29.625,3.81.323.792A.4.4,0,0,1,.406,0l29.3,3.018a.4.4,0,1,1-.083.754Z" transform="translate(83.933 60.136)" fill="#263238"/>
        <rect id="Rectangle-10" data-name="Rectangle" width="3.478" height="3.478" rx="0.567" transform="matrix(0.995, 0.102, -0.102, 0.995, 78.108, 65.12)" fill="#fff" stroke="#263238" stroke-linecap="round" stroke-linejoin="round" stroke-miterlimit="10" stroke-width="1.2"/>
        <path id="Path-42" data-name="Path" d="M32.719,4.082.233.754A.4.4,0,0,1,.316,0L32.78,3.289a.4.4,0,1,1-.083.754Z" transform="translate(83.404 66.209)" fill="#263238"/>
        <path id="Path-43" data-name="Path" d="M29.7,3.817.394.8A.4.4,0,1,1,.477.008L29.772,3.025a.4.4,0,1,1-.075.792Z" transform="translate(83.07 67.854)" fill="#263238"/>
        <path id="Rectangle-11" data-name="Rectangle" d="M.268,0H2.132V10.66H.268Z" transform="matrix(-0.995, -0.102, 0.102, -0.995, 103.789, 127.29)" fill="#757575" stroke="#263238" stroke-linecap="round" stroke-linejoin="round" stroke-miterlimit="10" stroke-width="1.2"/>
        <path id="Rectangle-12" data-name="Rectangle" d="M.268,0H2.132V5.017H.268Z" transform="matrix(-0.995, -0.102, 0.102, -0.995, 103.958, 125.687)" fill="#adc7f7" stroke="#263238" stroke-miterlimit="10" stroke-width="1.2"/>
        <path id="Rectangle-13" data-name="Rectangle" d="M.268,0H2.132V10.66H.268Z" transform="matrix(-0.995, -0.102, 0.102, -0.995, 108.245, 125.037)" fill="#757575" stroke="#263238" stroke-linecap="round" stroke-linejoin="round" stroke-miterlimit="10" stroke-width="1.2"/>
        <path id="Rectangle-14" data-name="Rectangle" d="M0,.268H5.017V2.132H0Z" transform="matrix(0.102, -0.995, 0.995, 0.102, 106.137, 121.98)" fill="#adc7f7" stroke="#263238" stroke-miterlimit="10" stroke-width="1.2"/>
        <path id="Rectangle-15" data-name="Rectangle" d="M.268,0H2.132V10.66H.268Z" transform="matrix(-0.995, -0.102, 0.102, -0.995, 112.207, 127.49)" fill="#757575" stroke="#263238" stroke-linecap="round" stroke-linejoin="round" stroke-miterlimit="10" stroke-width="1.2"/>
        <path id="Rectangle-16" data-name="Rectangle" d="M.268,0H2.132V5.017H.268Z" transform="matrix(-0.995, -0.102, 0.102, -0.995, 112.615, 123.51)" fill="#adc7f7" stroke="#263238" stroke-miterlimit="10" stroke-width="1.2"/>
        <path id="Rectangle-17" data-name="Rectangle" d="M.268,0H2.132V10.66H.268Z" transform="matrix(-0.995, -0.102, 0.102, -0.995, 99.83, 124.769)" fill="#757575" stroke="#263238" stroke-linecap="round" stroke-linejoin="round" stroke-miterlimit="10" stroke-width="1.2"/>
        <path id="Rectangle-18" data-name="Rectangle" d="M.268,0H2.132V5.017H.268Z" transform="matrix(-0.995, -0.102, 0.102, -0.995, 99.998, 123.157)" fill="#adc7f7" stroke="#263238" stroke-miterlimit="10" stroke-width="1.2"/>
        <path id="Rectangle-19" data-name="Rectangle" d="M.268,0H2.132V10.66H.268Z" transform="matrix(-0.995, -0.102, 0.102, -0.995, 95.337, 127.467)" fill="#757575" stroke="#263238" stroke-linecap="round" stroke-linejoin="round" stroke-miterlimit="10" stroke-width="1.2"/>
        <path id="Rectangle-20" data-name="Rectangle" d="M.268,0H2.132V5.017H.268Z" transform="matrix(-0.995, -0.102, 0.102, -0.995, 95.456, 126.277)" fill="#adc7f7" stroke="#263238" stroke-miterlimit="10" stroke-width="1.2"/>
        <path id="Rectangle-21" data-name="Rectangle" d="M.268,0H2.132V10.66H.268Z" transform="matrix(-0.995, -0.102, 0.102, -0.995, 91.44, 124.301)" fill="#757575" stroke="#263238" stroke-linecap="round" stroke-linejoin="round" stroke-miterlimit="10" stroke-width="1.2"/>
        <path id="Rectangle-22" data-name="Rectangle" d="M.268,0H2.132V5.017H.268Z" transform="matrix(-0.995, -0.102, 0.102, -0.995, 91.482, 123.916)" fill="#adc7f7" stroke="#263238" stroke-miterlimit="10" stroke-width="1.2"/>
        <path id="Rectangle-23" data-name="Rectangle" d="M.268,0H2.132V10.66H.268Z" transform="matrix(-0.995, -0.102, 0.102, -0.995, 86.695, 129.421)" fill="#757575" stroke="#263238" stroke-linecap="round" stroke-linejoin="round" stroke-miterlimit="10" stroke-width="1.2"/>
        <path id="Rectangle-24" data-name="Rectangle" d="M.268,0H2.132V5.017H.268Z" transform="matrix(-0.995, -0.102, 0.102, -0.995, 86.727, 129.028)" fill="#adc7f7" stroke="#263238" stroke-miterlimit="10" stroke-width="1.2"/>
        <path id="Rectangle-25" data-name="Rectangle" d="M.268,0H2.132V10.66H.268Z" transform="matrix(-0.995, -0.102, 0.102, -0.995, 83.206, 122.308)" fill="#757575" stroke="#263238" stroke-linecap="round" stroke-linejoin="round" stroke-miterlimit="10" stroke-width="1.2"/>
        <path id="Rectangle-26" data-name="Rectangle" d="M.268,0H2.132V5.017H.268Z" transform="matrix(-0.995, -0.102, 0.102, -0.995, 83.374, 120.713)" fill="#adc7f7" stroke="#263238" stroke-miterlimit="10" stroke-width="1.2"/>
        <path id="Rectangle-27" data-name="Rectangle" d="M.268,0H2.132V10.66H.268Z" transform="matrix(-0.995, -0.102, 0.102, -0.995, 79.087, 121.273)" fill="#757575" stroke="#263238" stroke-linecap="round" stroke-linejoin="round" stroke-miterlimit="10" stroke-width="1.2"/>
        <path id="Rectangle-28" data-name="Rectangle" d="M.268,0H2.132V5.017H.268Z" transform="matrix(-0.995, -0.102, 0.102, -0.995, 79.503, 117.264)" fill="#adc7f7" stroke="#263238" stroke-miterlimit="10" stroke-width="1.2"/>
        <path id="Rectangle-29" data-name="Rectangle" d="M.268,0H2.132V10.66H.268Z" transform="matrix(-0.995, -0.102, 0.102, -0.995, 74.241, 127.497)" fill="#757575" stroke="#263238" stroke-linecap="round" stroke-linejoin="round" stroke-miterlimit="10" stroke-width="1.2"/>
        <path id="Rectangle-30" data-name="Rectangle" d="M.268,0H2.132V5.017H.268Z" transform="matrix(-0.995, -0.102, 0.102, -0.995, 74.692, 123.096)" fill="#adc7f7" stroke="#263238" stroke-miterlimit="10" stroke-width="1.2"/>
        <path id="Rectangle-31" data-name="Rectangle" d="M.268,0H2.132V10.66H.268Z" transform="matrix(-0.995, -0.102, 0.102, -0.995, 70.542, 122.4)" fill="#757575" stroke="#263238" stroke-linecap="round" stroke-linejoin="round" stroke-miterlimit="10" stroke-width="1.2"/>
        <path id="Rectangle-32" data-name="Rectangle" d="M.268,0H2.132V5.017H.268Z" transform="matrix(-0.995, -0.102, 0.102, -0.995, 70.746, 120.406)" fill="#adc7f7" stroke="#263238" stroke-miterlimit="10" stroke-width="1.2"/>
        <path id="Rectangle-33" data-name="Rectangle" d="M.268,0H2.132V10.66H.268Z" transform="matrix(-0.995, -0.102, 0.102, -0.995, 66.073, 124.753)" fill="#757575" stroke="#263238" stroke-linecap="round" stroke-linejoin="round" stroke-miterlimit="10" stroke-width="1.2"/>
        <path id="Rectangle-34" data-name="Rectangle" d="M.268,0H2.132V5.017H.268Z" transform="matrix(-0.995, -0.102, 0.102, -0.995, 66.249, 123.142)" fill="#adc7f7" stroke="#263238" stroke-miterlimit="10" stroke-width="1.2"/>
        <path id="Rectangle-35" data-name="Rectangle" d="M.268,0H2.132V10.66H.268Z" transform="matrix(-0.995, -0.102, 0.102, -0.995, 61.412, 129.083)" fill="#757575" stroke="#263238" stroke-linecap="round" stroke-linejoin="round" stroke-miterlimit="10" stroke-width="1.2"/>
        <path id="Rectangle-36" data-name="Rectangle" d="M.268,0H2.132V5.017H.268Z" transform="matrix(-0.995, -0.102, 0.102, -0.995, 61.426, 129.075)" fill="#adc7f7" stroke="#263238" stroke-miterlimit="10" stroke-width="1.2"/>
        <path id="Rectangle-37" data-name="Rectangle" d="M.268,0H2.132V10.66H.268Z" transform="matrix(-0.995, -0.102, 0.102, -0.995, 57.935, 121.933)" fill="#757575" stroke="#263238" stroke-linecap="round" stroke-linejoin="round" stroke-miterlimit="10" stroke-width="1.2"/>
        <path id="Rectangle-38" data-name="Rectangle" d="M.268,0H2.132V5.017H.268Z" transform="matrix(-0.995, -0.102, 0.102, -0.995, 58.054, 120.728)" fill="#adc7f7" stroke="#263238" stroke-miterlimit="10" stroke-width="1.2"/>
        <path id="Rectangle-39" data-name="Rectangle" d="M.268,0H2.132V10.66H.268Z" transform="matrix(-0.995, -0.102, 0.102, -0.995, 54.229, 116.852)" fill="#757575" stroke="#263238" stroke-linecap="round" stroke-linejoin="round" stroke-miterlimit="10" stroke-width="1.2"/>
        <path id="Rectangle-40" data-name="Rectangle" d="M.268,0H2.132V5.017H.268Z" transform="matrix(-0.995, -0.102, 0.102, -0.995, 54.362, 115.647)" fill="#adc7f7" stroke="#263238" stroke-miterlimit="10" stroke-width="1.2"/>
        <path id="Rectangle-41" data-name="Rectangle" d="M.268,0H2.132V10.66H.268Z" transform="matrix(-0.995, -0.102, 0.102, -0.995, 49.481, 122.032)" fill="#757575" stroke="#263238" stroke-linecap="round" stroke-linejoin="round" stroke-miterlimit="10" stroke-width="1.2"/>
        <path id="Rectangle-42" data-name="Rectangle" d="M.268,0H2.132V5.017H.268Z" transform="matrix(-0.995, -0.102, 0.102, -0.995, 49.89, 118.045)" fill="#adc7f7" stroke="#263238" stroke-miterlimit="10" stroke-width="1.2"/>
        <path id="Rectangle-43" data-name="Rectangle" d="M.268,0H2.132V10.66H.268Z" transform="matrix(-0.995, -0.102, 0.102, -0.995, 44.698, 127.597)" fill="#757575" stroke="#263238" stroke-linecap="round" stroke-linejoin="round" stroke-miterlimit="10" stroke-width="1.2"/>
        <path id="Rectangle-44" data-name="Rectangle" d="M.268,0H2.132V5.017H.268Z" transform="matrix(-0.995, -0.102, 0.102, -0.995, 45.184, 122.797)" fill="#adc7f7" stroke="#263238" stroke-miterlimit="10" stroke-width="1.2"/>
        <path id="Rectangle-45" data-name="Rectangle" d="M.268,0H2.132V10.66H.268Z" transform="matrix(-0.995, -0.102, 0.102, -0.995, 41.135, 121.174)" fill="#757575" stroke="#263238" stroke-linecap="round" stroke-linejoin="round" stroke-miterlimit="10" stroke-width="1.2"/>
        <path id="Rectangle-46" data-name="Rectangle" d="M.268,0H2.132V5.017H.268Z" transform="matrix(-0.995, -0.102, 0.102, -0.995, 41.296, 119.586)" fill="#adc7f7" stroke="#263238" stroke-miterlimit="10" stroke-width="1.2"/>
        <path id="Rectangle-47" data-name="Rectangle" d="M.268,0H2.132V10.66H.268Z" transform="matrix(-0.995, -0.102, 0.102, -0.995, 37.141, 118.99)" fill="#757575" stroke="#263238" stroke-linecap="round" stroke-linejoin="round" stroke-miterlimit="10" stroke-width="1.2"/>
        <path id="Rectangle-48" data-name="Rectangle" d="M.268,0H2.132V5.017H.268Z" transform="matrix(-0.995, -0.102, 0.102, -0.995, 37.592, 114.589)" fill="#adc7f7" stroke="#263238" stroke-miterlimit="10" stroke-width="1.2"/>
        <path id="Rectangle-49" data-name="Rectangle" d="M.268,0H2.132V10.66H.268Z" transform="matrix(-0.995, -0.102, 0.102, -0.995, 32.621, 121.871)" fill="#757575" stroke="#263238" stroke-linecap="round" stroke-linejoin="round" stroke-miterlimit="10" stroke-width="1.2"/>
        <path id="Rectangle-50" data-name="Rectangle" d="M.268,0H2.132V5.017H.268Z" transform="matrix(-0.995, -0.102, 0.102, -0.995, 32.627, 121.862)" fill="#adc7f7" stroke="#263238" stroke-miterlimit="10" stroke-width="1.2"/>
        <path id="Rectangle-51" data-name="Rectangle" d="M.268,0H2.132V10.66H.268Z" transform="matrix(-0.995, -0.102, 0.102, -0.995, 28.787, 118.123)" fill="#757575" stroke="#263238" stroke-linecap="round" stroke-linejoin="round" stroke-miterlimit="10" stroke-width="1.2"/>
        <path id="Rectangle-52" data-name="Rectangle" d="M.268,0H2.132V5.017H.268Z" transform="matrix(-0.995, -0.102, 0.102, -0.995, 28.871, 117.333)" fill="#adc7f7" stroke="#263238" stroke-miterlimit="10" stroke-width="1.2"/>
        <path id="Rectangle-53" data-name="Rectangle" d="M.268,0H2.132V10.66H.268Z" transform="matrix(-0.995, -0.102, 0.102, -0.995, 24.469, 119.127)" fill="#757575" stroke="#263238" stroke-linecap="round" stroke-linejoin="round" stroke-miterlimit="10" stroke-width="1.2"/>
        <path id="Rectangle-54" data-name="Rectangle" d="M.268,0H2.132V5.017H.268Z" transform="matrix(-0.995, -0.102, 0.102, -0.995, 24.51, 118.727)" fill="#adc7f7" stroke="#263238" stroke-miterlimit="10" stroke-width="1.2"/>
        <path id="Rectangle-55" data-name="Rectangle" d="M.268,0H2.132V10.66H.268Z" transform="matrix(-0.995, -0.102, 0.102, -0.995, 20.433, 117.334)" fill="#757575" stroke="#263238" stroke-linecap="round" stroke-linejoin="round" stroke-miterlimit="10" stroke-width="1.2"/>
        <path id="Rectangle-56" data-name="Rectangle" d="M.268,0H2.132V5.017H.268Z" transform="matrix(-0.995, -0.102, 0.102, -0.995, 20.968, 112.151)" fill="#adc7f7" stroke="#263238" stroke-miterlimit="10" stroke-width="1.2"/>
        <path id="Path-44" data-name="Path" d="M85.656,8.688.986,0A.9.9,0,0,0,.005.8.883.883,0,0,0,.8,1.777l84.678,8.661a.88.88,0,1,0,.181-1.75Z" transform="translate(27.396 131.396)" fill="#263238"/>
        <path id="Path-45" data-name="Path" d="M99.455,10.1.986,0A.9.9,0,0,0,.005.8a.883.883,0,0,0,.8.973L99.266,11.872a.9.9,0,0,0,.973-.8.883.883,0,0,0-.785-.973Z" transform="translate(12.956 136.36)" fill="#263238"/>
        <path id="Path-46" data-name="Path" d="M58.088,5.859.985,0A.891.891,0,1,0,.8,1.777l57.1,5.854a.891.891,0,1,0,.181-1.773Z" transform="translate(12.301 142.765)" fill="#263238"/>
        <path id="Path-47" data-name="Path" d="M121.962,32.66c-2.92-.234-3.931,4.421-3.931,4.421s-4.617-6.036-3.885-20.279c0,0-2.263-6.307-8.3-2.5s-12.3,17.231-10.811,31.867l-11.724-39c-4.059.86-12.3,6.315-10.132,32.652L60.355,26.247A4.83,4.83,0,0,0,54.923,28.2c-1.962,3.071-1.026,25.062.6,33.286s-2.512,24.746-2.512,24.746-4.421-18.71-12.418-23.448L10.132,0,0,98.756l11.415,1.169L29.747,91c-.106,4.127-.2,7.922-.505,10.751l91.619,9.385,6.556-63.991C125.191,39.17,123.064,32.743,121.962,32.66Z" transform="translate(0.43 58.997)" fill="rgba(0,0,0,0.7)" opacity="0.2"/>
      </g>
      <path id="Path-48" data-name="Path" d="M138.077,12.38,127.417,116.4l-6.556,63.991-91.619-9.385-17.827-1.826L0,168.013,10.117,69.257,17.216,0,138.077,12.38Z" transform="translate(0.43 0.302)" fill="none" stroke="#263238" stroke-linecap="round" stroke-linejoin="round" stroke-miterlimit="10" stroke-width="1.2"/>
      <path id="Path-49" data-name="Path" d="M107.628,203.7l-53.565,9.114s-9.325-49.529-14.885-57.337-4.527-11.015-7.243-16.273c-1.63-3.176-9.808-9.1-16.213-14.945h0c-.558-.505-1.1-1.011-1.622-1.509-.226-.2-.438-.422-.649-.626-.853-.845-1.645-1.667-2.346-2.475q-.385-.43-.754-.86a12.222,12.222,0,0,1-2.6-4.595,1.169,1.169,0,0,1-.045-.234,1.946,1.946,0,0,1-.045-.279c-.143-1.169-.294-2.5-.445-3.953a7.464,7.464,0,0,0-.1-.89l-.045-.362c-.128-1.207-.272-2.49-.438-3.81s-.347-2.814-.558-4.255c-.068-.5-.136-1-.219-1.509h0c-.083-.558-.174-1.117-.264-1.682l-.264-1.456a1.714,1.714,0,0,0-.045-.226l-.317-1.675a.754.754,0,0,1-.038-.189c-.106-.49-.2-.973-.317-1.464-.234-1.094-.5-2.165-.754-3.206a39.782,39.782,0,0,0-2-5.734C-2,74.647,3.025,77.763,0,55.575c0,0,2.226-5.145,8.57-1.034a17,17,0,0,1,1.418,1.034h0a17.835,17.835,0,0,1,3.372,3.606,20.838,20.838,0,0,1,2.912,6.036,26.111,26.111,0,0,1,.86,10.788s4.768,16.341,7.28,20.061,12.9-17.646,12.229-20.136a33.642,33.642,0,0,1-.536-3.38c-.045-.37-.091-.754-.143-1.177s-.1-.845-.143-1.29a5.037,5.037,0,0,0-.083-.656v-.264c-.091-.853-.2-1.758-.294-2.693a5.918,5.918,0,0,0-.083-.754c-.045-.445-.091-.905-.136-1.358a1.908,1.908,0,0,1,0-.226c0-.257-.06-.521-.083-.754-.06-.528-.113-1.064-.166-1.6s-.091-.92-.136-1.381c-.091-.868-.174-1.735-.257-2.573-.06-.626-.121-1.245-.174-1.848a1.412,1.412,0,0,0-.038-.4c-.317-3.32-.566-6.036-.656-7.212,0,0-7.544-11.181-8.3-16.447S24.708,21.1,27.869,18.849c7.484-5.326,5.281,3.259,8.646,6.79s8.487,9.378,11.4,11.2C50.6,38.54,53,45.134,53.339,46.13c-.385-1.449-4.225-15.692-4.308-18.559-.1-3.018-2.407-18.982,1.509-24.708s9.136-1.283,9.619-.151.626,16.6,2.007,20.9,7.16,22.233,7.16,22.233.241-17.443,1.509-25.251S75.527,6.68,78.846,6.333s6.39,3.312,6.39,3.312S83.924,22.093,84.3,24.968s-.543,13.255,1.034,18.861c0,0-.181-14.87,2.128-16.771s4.293-2.814,5.59-1.509,1.577,10.087,2.9,15.383S97.1,53.425,97.971,61.686s4.285,19.729,3.606,26.285-2.769,22.814-4.451,32.358-5.975,22.633-5.975,22.633a46.887,46.887,0,0,1,1.577,13.2C92.351,162.388,107.628,203.7,107.628,203.7Z" transform="translate(29.37 76.776)" fill="#fff"/>
      <path id="Path-50" data-name="Path" d="M13.459,4.053c1.026,3.184,4.459,13.836,6.164,19.155,0,0-7.484,5.5-7.3,10.615S10.954,49.266,7.59,48.965,4.572,27.2,3.433,23.585c.687,1.554,1.124,2.814,1.215,3.063C4.4,25.72.4,10.941.317,8.014c0-.687-.158-2.06-.317-3.833H0S7.446-2.948,12.908,1.412h0a19.9,19.9,0,0,0,.551,2.641Z" transform="translate(78.009 96.287)" fill="#adc7f7" opacity="0.4"/>
      <path id="Path-51" data-name="Path" d="M15.089,13.135c-3.486,3.3-8.744,9.144-9.408,14.779,0,0,1.939,15.738,1.109,22.633L0,29.265S.241,11.822,1.509,4.014a3.812,3.812,0,0,1,.113-.641A31.03,31.03,0,0,1,15.292,0,60.129,60.129,0,0,0,15,8.352a45.553,45.553,0,0,1,.091,4.783Z" transform="translate(98.628 93.332)" fill="#adc7f7" opacity="0.4"/>
      <path id="Path-52" data-name="Path" d="M.664.513h0C.581.566.377.732.083.981A8.88,8.88,0,0,1,.671,0Z" transform="translate(116.138 103.237)" fill="#adc7f7" opacity="0.4"/>
      <path id="Path-53" data-name="Path" d="M4.528,45.266S.047,28.457,0,14.923C-.036,9.913.545,5.349,2.167,2.263h0a8.88,8.88,0,0,1,.588-.981v.483A12.561,12.561,0,0,1,5.426,0C4.166,1.962,2.718,5.8,4.393,12.071,7.026,21.811,4.732,33.754,4.528,45.266Z" transform="translate(114.047 101.992)" fill="#adc7f7" opacity="0.4"/>
      <path id="Path-54" data-name="Path" d="M23.531,47s1.2,16.017-11.671,21.75h0c-.558-.505-1.1-1.011-1.622-1.509-.226-.2-.438-.422-.649-.626-.853-.845-1.645-1.667-2.346-2.475-.264-.294-.5-.581-.754-.86a12.222,12.222,0,0,1-2.6-4.595,1.169,1.169,0,0,1-.045-.234,1.946,1.946,0,0,1-.045-.279c-.143-1.169-.294-2.5-.445-3.953a7.465,7.465,0,0,0-.1-.89l-.045-.362c-.128-1.207-.272-2.49-.438-3.81s-.347-2.814-.558-4.255c-.075-.5-.143-1-.219-1.509H2c-.083-.558-.174-1.117-.264-1.682l-.264-1.464a1.713,1.713,0,0,0-.045-.226l-.317-1.675a.754.754,0,0,1-.038-.189c-.106-.49-.2-.973-.317-1.464C.513,35.609.249,34.538,0,33.489c5.092-4.9,16.847-1.826,11.158-13.18,0,0,2.867-9.717-5.032-20.249h0c5.4,4.353,8.171,12.011,7.145,20.37,0,0,4.768,16.341,7.28,20.061s12.9-17.646,12.229-20.136a33.64,33.64,0,0,1-.536-3.38c-.045-.37-.091-.754-.143-1.177s-.1-.845-.143-1.29a5.037,5.037,0,0,0-.083-.656v-.264q-.136-1.29-.294-2.693a5.918,5.918,0,0,0-.083-.754c-.045-.445-.091-.905-.136-1.358a1.909,1.909,0,0,1,0-.226c0-.257-.06-.521-.083-.754-.06-.528-.113-1.064-.166-1.6s-.091-.92-.136-1.381c-.091-.868-.174-1.735-.257-2.573C30.66,1.622,30.608,1,30.547.4a1.412,1.412,0,0,0-.038-.4c.2.988,4.029,19.2,6.217,23.44C38.921,27.786,29.385,50.774,23.531,47Z" transform="translate(33.233 132.291)" fill="#adc7f7" opacity="0.4"/>
      <path id="Path-55" data-name="Path" d="M24.717,44.572c-1.682,9.551-5.975,22.633-5.975,22.633a46.887,46.887,0,0,1,1.577,13.2c-.106,1.675.936,5.907,2.49,11.188-.453-1.162-5.281-13.625-5.183-17.971.1-4.564-1.2-5.824-3.772-11.43s-6.42-4.987-6.42-4.987S5.924,71.189,2.424,62-1.763,42.12,7.086,5c0,0,1.335,4.655.219,18.484S9.493,41.5,9.493,41.5A129.182,129.182,0,0,0,21.255,14.078s-1.147,16.137-2.165,23.486,3.629-8.518,6.873-18.318c3.018-9.2,3.161-12.7,2-19.246.86,4.61,1.509,9.053,1.177,12.229C28.49,18.755,26.4,35.029,24.717,44.572Z" transform="translate(101.749 152.427)" fill="#adc7f7" opacity="0.4"/>
      <path id="Path-56" data-name="Path" d="M0,0C2.61,4.149,9,9.634,12.825,24.806s1.411,31.777,1.411,31.777Z" transform="translate(65.938 228.112)" fill="#adc7f7" opacity="0.4"/>
      <path id="Path-57" data-name="Path" d="M16.281,12.216S2.92,19.006,1.863,30.322C-2,21.7,3.025,24.815,0,2.627c0,0,2.226-5.145,8.57-1.034A17,17,0,0,1,9.989,2.627h0a17.835,17.835,0,0,1,3.372,3.606Z" transform="translate(29.37 129.747)" fill="rgba(0,0,0,0.7)" opacity="0.2"/>
      <path id="Path-58" data-name="Path" d="M54.071,212.852s-9.325-49.529-14.885-57.337-4.527-11.015-7.243-16.273S8.608,121.188,7.7,113.711,5.734,91.931,1.871,83.3,3.033,77.792,0,55.6c0,0,2.263-5.145,8.578-1.034s9.679,12.335,8.57,21.441c0,0,4.768,16.326,7.288,20.053S37.322,78.419,36.651,75.921s-2.663-23.735-2.972-27.612c0,0-7.544-11.188-8.3-16.454S24.67,21.044,27.831,18.8c7.484-5.326,5.281,3.259,8.646,6.79s8.487,9.37,11.392,11.2,5.439,9.453,5.439,9.453-4.263-15.647-4.346-18.672S46.556,8.58,50.472,2.862,59.616,1.572,60.1,2.7s.626,16.6,2.014,20.9l7.145,22.233s.249-17.443,1.554-25.251S75.5,6.672,78.824,6.324s6.39,3.312,6.39,3.312S83.9,22.085,84.271,24.959s-.536,13.248,1.041,18.861c0,0-.181-14.87,2.128-16.771s4.293-2.814,5.59-1.509,1.577,10.087,2.9,15.383,1.154,12.493,2.022,20.755,4.285,19.729,3.606,26.277-2.769,22.822-4.459,32.373a207.04,207.04,0,0,1-5.96,22.633,47.023,47.023,0,0,1,1.569,13.2c-.377,6.224,14.923,47.658,14.923,47.658" transform="translate(29.363 76.739)" fill="none" stroke="#263238" stroke-linecap="round" stroke-linejoin="round" stroke-miterlimit="10" stroke-width="1.2"/>
      <path id="Path-59" data-name="Path" d="M0,0C1.562,3.667,5.417,19.148,6.79,21.29a7.348,7.348,0,0,0,2.942,2.791" transform="translate(98.62 122.558)" fill="none" stroke="#263238" stroke-linecap="round" stroke-linejoin="round" stroke-miterlimit="10" stroke-width="1.2"/>
      <path id="Path-60" data-name="Path" d="M.026,0S-.306,3.176,1.407,13.286,3.957,27.7,4.915,29.959" transform="translate(114.649 120.521)" fill="none" stroke="#263238" stroke-linecap="round" stroke-linejoin="round" stroke-miterlimit="10" stroke-width="1.2"/>
      <path id="Path-61" data-name="Path" d="M0,0C2.09,6.164,3.274,15.987,4.466,18.944S6.73,22.512,6.73,22.512" transform="translate(82.671 122.973)" fill="none" stroke="#263238" stroke-linecap="round" stroke-linejoin="round" stroke-miterlimit="10" stroke-width="1.2"/>
      <path id="Path-62" data-name="Path" d="M0,0A9.378,9.378,0,0,1,2.9,3.659" transform="translate(86.059 137.745)" fill="none" stroke="#263238" stroke-linecap="round" stroke-linejoin="round" stroke-miterlimit="10" stroke-width="1.2"/>
      <path id="Path-63" data-name="Path" d="M0,0S1.139,8.171,6.262,7.544" transform="translate(53.799 172.812)" fill="none" stroke="#263238" stroke-linecap="round" stroke-linejoin="round" stroke-miterlimit="10" stroke-width="1.2"/>
      <path id="Path-64" data-name="Path" d="M.845,0S2.173,9.717,0,13.836" transform="translate(65.168 152.668)" fill="none" stroke="#263238" stroke-linecap="round" stroke-linejoin="round" stroke-miterlimit="10" stroke-width="1.2"/>
      <path id="Path-65" data-name="Path" d="M5.168,0s3.44,2.1,1.139,8.3S0,39.4,0,39.4" transform="translate(101.766 152.759)" fill="none" stroke="#263238" stroke-linecap="round" stroke-linejoin="round" stroke-miterlimit="10" stroke-width="1.2"/>
      <path id="Path-66" data-name="Path" d="M6.873,0c1.441,5.583,1.569,5.726-.754,12.584S0,36.243,0,36.243" transform="translate(115.037 159.277)" fill="none" stroke="#263238" stroke-linecap="round" stroke-linejoin="round" stroke-miterlimit="10" stroke-width="1.2"/>
      <path id="Path-67" data-name="Path" d="M1.133,8.3S-1.13,3.772.741,0" transform="translate(119.366 211.318)" fill="none" stroke="#263238" stroke-linecap="round" stroke-linejoin="round" stroke-miterlimit="10" stroke-width="1.2"/>
      <path id="Path-68" data-name="Path" d="M0,0A62.154,62.154,0,0,1,8.163,16.93" transform="translate(68.548 232.261)" fill="none" stroke="#263238" stroke-linecap="round" stroke-linejoin="round" stroke-miterlimit="10" stroke-width="1.2"/>
      <path id="Path-69" data-name="Path" d="M0,1.72,1.539.2,2.233,0,2.188.754.777,2.558,0,1.72Z" transform="translate(110.404 90.495)" fill="#757575" stroke="#263238" stroke-linecap="round" stroke-linejoin="round" stroke-miterlimit="10" stroke-width="1.2"/>
      <path id="Path-70" data-name="Path" d="M77.292,1.35l-2.5,5.673L7.492,96.757,0,91.974,10.147,79.208,70.593,3.387,75.927,0a1.909,1.909,0,0,1,1.366,1.35Z" transform="translate(34.365 91.709)" fill="#adc7f7"/>
      <path id="Path-71" data-name="Path" d="M77.292,1.366l-2.5,5.673L7.492,96.772,0,91.989,10.147,79.224c4.678-.483,5.462,2.263,5.462,2.263L73.588,5.817C73.014,3.78,70.57,3.387,70.57,3.387L75.9,0a1.909,1.909,0,0,1,1.388,1.366Z" transform="translate(34.365 91.694)" fill="rgba(0,0,0,0.7)" opacity="0.3"/>
      <path id="Path-72" data-name="Path" d="M77.292,1.35l-2.5,5.673L7.492,96.757,0,91.974,10.147,79.208,70.593,3.387,75.927,0a1.909,1.909,0,0,1,1.366,1.35Z" transform="translate(34.365 91.709)" fill="none" stroke="#263238" stroke-linecap="round" stroke-linejoin="round" stroke-miterlimit="10" stroke-width="1.2"/>
      <path id="Path-73" data-name="Path" d="M42.505.92S34.961,15.828,27.763,26.375L22.6,27.711S10.758,39.48,3.531,45.357A16.2,16.2,0,0,1,0,42.392S10.26,22.686,21.615,10.215a14.334,14.334,0,0,1,3.719,1.977,18.438,18.438,0,0,1,3.893,3.727L41.879,0Z" transform="translate(21.298 160.974)" fill="#adc7f7"/>
      <path id="Path-74" data-name="Path" d="M38.974.951S31.43,15.858,24.233,26.405l-5.16,1.335S7.228,39.51,0,45.387l.2-3.2C8.035,30.215,17.993,17.156,21.8,12.222A18.438,18.438,0,0,1,25.7,15.949l-7.031,9.385,4.029-.754L38.348,0Z" transform="translate(24.829 160.944)" fill="rgba(0,0,0,0.7)" opacity="0.3"/>
      <path id="Path-75" data-name="Path" d="M42.505.92S34.961,15.828,27.763,26.375L22.6,27.711S10.758,39.48,3.531,45.357A16.2,16.2,0,0,1,0,42.392S10.26,22.686,21.615,10.215a14.334,14.334,0,0,1,3.719,1.977,18.438,18.438,0,0,1,3.893,3.727L41.879,0Z" transform="translate(21.298 160.974)" fill="none" stroke="#263238" stroke-linecap="round" stroke-linejoin="round" stroke-miterlimit="10" stroke-width="1.2"/>
      <path id="Path-76" data-name="Path" d="M34.964,51.574,13.945,71.944,10.588,75.2c2.3-5.915,1.184-15.089,1.041-16.168h0v-.257a33.641,33.641,0,0,1-.536-3.38c-.045-.37-.091-.754-.143-1.177s-.1-.845-.143-1.29a5.037,5.037,0,0,0-.083-.656v-.264c-.091-.853-.2-1.758-.294-2.693a5.917,5.917,0,0,0-.083-.754c-.045-.445-.091-.905-.136-1.358a1.908,1.908,0,0,1,0-.226c0-.257-.06-.521-.083-.754-.06-.528-.113-1.064-.166-1.6s-.091-.92-.136-1.381c-.091-.868-.174-1.735-.257-2.573-.06-.626-.121-1.245-.174-1.848a1.412,1.412,0,0,0-.038-.4c-.317-3.32-.566-6.036-.656-7.212,0,0-7.544-11.181-8.3-16.447S-.306,3.954,2.855,1.7c7.484-5.326,5.281,3.259,8.646,6.79s8.487,9.378,11.4,11.2,5.349,9.393,5.349,9.393c2.09,6.156,3.274,15.979,4.466,18.936S34.964,51.574,34.964,51.574Z" transform="translate(54.422 93.896)" fill="#fff"/>
      <path id="Path-77" data-name="Path" d="M0,0A9.378,9.378,0,0,1,2.9,3.659" transform="translate(86.059 137.745)" fill="none" stroke="#263238" stroke-linecap="round" stroke-linejoin="round" stroke-miterlimit="10" stroke-width="1.2"/>
      <path id="Path-78" data-name="Path" d="M11.47,8.507c3.335,3.561,8.457,9.34,11.369,11.181-.407-.2-5.771-2.814-8.767.091C10.957,22.8,8.7,31.208,8.7,31.208S1.157,20.028.4,14.762-.306,3.95,2.855,1.695C10.308-3.632,8.121,4.984,11.47,8.507Z" transform="translate(54.339 93.847)" fill="#adc7f7" opacity="0.4"/>
      <path id="Path-79" data-name="Path" d="M4.587,33.52,1.23,36.779c2.3-5.915,1.184-15.089,1.041-16.168h0a1.139,1.139,0,0,0,0-.257,33.64,33.64,0,0,1-.536-3.38c-.045-.37-.091-.754-.143-1.177s-.1-.845-.143-1.29a5.037,5.037,0,0,0-.083-.656v-.264q-.136-1.29-.294-2.693a5.918,5.918,0,0,0-.083-.754C.943,9.695.9,9.234.853,8.782a1.909,1.909,0,0,1,0-.226C.853,8.3.792,8.035.77,7.8.709,7.273.656,6.737.6,6.2S.513,5.281.468,4.821C.377,3.953.294,3.086.211,2.248.151,1.622.1,1,.038.4A1.412,1.412,0,0,0,0,0C.2.988,4.029,19.2,6.217,23.44,6.956,24.979,6.186,29.114,4.587,33.52Z" transform="translate(63.78 132.336)" fill="#adc7f7" opacity="0.4"/>
      <path id="Path-80" data-name="Path" d="M35.1,51.613S34.038,51,32.839,48.044,30.462,35.264,28.372,29.1c0,0-2.558-7.544-5.47-9.4S14.86,12.065,11.511,8.5,10.349-3.642,2.865,1.714C-.3,3.978-.364,9.515.413,14.774s8.3,16.454,8.3,16.454c.309,3.878,2.3,25.123,2.972,27.612" transform="translate(54.292 93.858)" fill="none" stroke="#263238" stroke-linecap="round" stroke-linejoin="round" stroke-miterlimit="10" stroke-width="1.2"/>
      <path id="Path-81" data-name="Path" d="M.845,0S2.173,9.717,0,13.836" transform="translate(65.168 152.668)" fill="none" stroke="#263238" stroke-linecap="round" stroke-linejoin="round" stroke-miterlimit="10" stroke-width="1.2"/>
    </g>
    <g id="freepik--left-hand--inject-29" transform="translate(7.544 28.669)">
      <path id="Path-82" data-name="Path" d="M61.411,13.188s4.776,22.18-5.568,38.31S37.533,71.936,33.965,76.749s-17.593,31.724-17.593,31.724L0,59.985,16.371,0Z" transform="translate(40.792 159.662)" fill="rgba(0,0,0,0.7)" opacity="0.2"/>
      <path id="Path-83" data-name="Path" d="M177.5,155.671,75.979,198.395,65.515,202.8,45.794,155.942,0,47.13,111.981,0,177.5,155.671Z" transform="translate(21.2 0.226)" fill="#fff"/>
      <g id="Group-3" data-name="Group" transform="translate(42.249 19.615)">
        <path id="Path-84" data-name="Path" d="M49.431.152,1.094,20.522a1.784,1.784,0,1,0,1.381,3.289L50.8,3.434A1.78,1.78,0,1,0,49.423.152Z" transform="translate(12.569 0.716)" fill="#263238"/>
        <path id="Path-85" data-name="Path" d="M24.688.089.546,10.259A.893.893,0,0,0,1.24,11.9L25.382,1.726A.89.89,0,1,0,24.688.089Z" transform="translate(28.07 12.615)" fill="#263238"/>
        <path id="Path-86" data-name="Path" d="M60.378,0S61.4,8,58.416,9.257c-2.724,1.147-6.307-3.146-9.438-1.833S48.314,20.1,45.3,21.366s-6.654-3.395-9.264-2.263-1.026,6.941-3.712,8.072c-2.218.928-5.387-3.712-7.922-4.73a1.924,1.924,0,0,0-1.509-.075c-2.656,1.117-1.335,13.316-3.629,14.274a4.315,4.315,0,0,1-2.037.339,14.379,14.379,0,0,0-2.588-.249,3.32,3.32,0,0,0-.966.249c-1.954.822-1.69,7.243-3.478,8S6.639,44.8,4.73,45.6,2.852,49.74,0,50.94L1.207,53.8,70.7,24.557" transform="translate(32.147 74.689)" fill="#bfbfbf" stroke="#263238" stroke-miterlimit="10" stroke-width="1.2"/>
        <path id="Path-87" data-name="Path" d="M0,0,14.07,33.429,86.828,2.814" transform="translate(19.283 94.999)" fill="none" stroke="#263238" stroke-linecap="round" stroke-linejoin="round" stroke-miterlimit="10" stroke-width="1.2"/>
        <path id="Path-88" data-name="Path" d="M65.968,2.545s-.347-.422-.86-.928C64.21.75,62.784-.352,61.7.108s-1.154,2.2-1.132,4.089c0,2.263.226,4.753-.928,5.236-.981.415-1.856-.2-2.761-.883-1.034-.754-2.09-1.614-3.365-1.079-2.143.905-1.509,3.7-2.263,6.088a4.625,4.625,0,0,1-2.829,3.018c-1.848.754-3.727,0-5.5-1.192-3.018-2.037-5.673-5.341-7.409-4.61-2.769,1.169.279,8.653-2.693,9.906-1.66.7-5.1-4.527-8.442-9.053-2.641-3.568-5.221-6.677-6.79-6.036C14,7.1,19.91,25,17.307,26.1l-.083.038a2.776,2.776,0,0,1-2.588-.249c-.936-.528-1.705-1.29-2.739-.853-1.924.815-.8,7.831-2.912,8.721s-3.387-.4-5.771.6C1.2,35.212,0,40.094,0,40.094l1.207,2.859L70.7,13.711" transform="translate(32.147 85.407)" fill="#757575" stroke="#263238" stroke-linecap="round" stroke-linejoin="round" stroke-miterlimit="10" stroke-width="1.2"/>
        <path id="Path-89" data-name="Path" d="M24.688.07.546,10.24a.893.893,0,0,0,.694,1.645L25.382,1.715A.893.893,0,0,0,24.688.07Z" transform="translate(58.715 111.745)" fill="#263238"/>
        <rect id="Rectangle-57" data-name="Rectangle" width="3.478" height="3.478" rx="0.567" transform="translate(99.776 72.943) rotate(-22.82)" fill="#bfbfbf" stroke="#263238" stroke-miterlimit="10" stroke-width="1.2"/>
        <path id="Path-90" data-name="Path" d="M10.216.77.559,4.836a.415.415,0,0,1-.528-.219A.4.4,0,0,1,.242,4.1L9.906.031a.4.4,0,0,1,.309.739Z" transform="translate(104.964 67.054)" fill="#263238"/>
        <path id="Path-91" data-name="Path" d="M7.268.77.554,3.592a.4.4,0,0,1-.309-.739L6.959.031A.4.4,0,0,1,7.48.242.407.407,0,0,1,7.268.77Z" transform="translate(105.641 69.898)" fill="#263238"/>
        <rect id="Rectangle-58" data-name="Rectangle" width="3.478" height="3.478" rx="0.567" transform="translate(102.8 80.125) rotate(-22.82)" fill="#757575" stroke="#263238" stroke-linecap="round" stroke-linejoin="round" stroke-miterlimit="10" stroke-width="1.2"/>
        <path id="Path-92" data-name="Path" d="M10.219.792.562,4.851A.408.408,0,0,1,.253,4.1L9.91.03a.408.408,0,1,1,.309.754Z" transform="translate(107.979 74.214)" fill="#263238"/>
        <path id="Path-93" data-name="Path" d="M7.275.777.568,3.607a.409.409,0,1,1-.317-.754L6.965.031a.408.408,0,0,1,.309.754Z" transform="translate(108.652 77.065)" fill="#263238"/>
        <path id="Path-94" data-name="Path" d="M79.007.089.546,33.1a.893.893,0,1,0,.694,1.645L79.7,1.726A.89.89,0,1,0,79.007.089Z" transform="translate(51.895 104.521)" fill="#263238"/>
        <path id="Path-95" data-name="Path" d="M91.819.1.585,38.491a.89.89,0,1,0,.694,1.637L92.505,1.735A.89.89,0,1,0,91.819.1Z" transform="translate(41.573 110.42)" fill="#263238"/>
        <path id="Path-96" data-name="Path" d="M91.811.089.585,38.483a.89.89,0,1,0,.694,1.637L92.49,1.726A.89.89,0,1,0,91.8.089Z" transform="translate(44.063 116.336)" fill="#263238"/>
        <path id="Path-97" data-name="Path" d="M91.836.128.61,38.491A.89.89,0,1,0,1.3,40.128L92.523,1.735A.89.89,0,1,0,91.836.1Z" transform="translate(46.527 122.204)" fill="#263238"/>
        <path id="Path-98" data-name="Path" d="M53.493.07.585,22.341a.89.89,0,1,0,.694,1.637L54.188,1.715A.893.893,0,0,0,53.493.07Z" transform="translate(49.035 144.291)" fill="#263238"/>
        <path id="Path-99" data-name="Path" d="M60.378,0S61.4,8.012,58.416,9.264c-2.724,1.147-6.315-3.146-9.438-1.833S48.314,20.1,45.3,21.373s-6.662-3.395-9.264-2.3-1.026,6.941-3.712,8.065c-2.218.936-5.387-3.7-7.922-4.723a1.924,1.924,0,0,0-1.509-.075c-2.656,1.117-1.335,13.308-3.629,14.274a4.21,4.21,0,0,1-2.037.332,15.224,15.224,0,0,0-2.588-.241,3.259,3.259,0,0,0-.966.249c-1.954.822-1.69,7.243-3.478,7.989s-3.553-.174-5.462.626S2.852,49.71,0,50.909l1.207,2.859L70.729,24.527" transform="translate(13.014 29.197)" fill="#bfbfbf" stroke="#263238" stroke-miterlimit="10" stroke-width="1.2"/>
        <path id="Path-100" data-name="Path" d="M64.55,0s.634,3.878-.9,4.527c-1.275.536-2.06-.211-3.4-.257a4.421,4.421,0,0,0-1.909.37c-1.23.513-1.509,2.173-1.743,3.953-.272,2.2-.407,4.579-2.014,5.281a4.948,4.948,0,0,1-3.591-.241c-2-.694-4.1-1.8-6.126-.943a4.88,4.88,0,0,0-2.2,2.8c-1.26,3.116-1.652,7.627-3.018,8.2-1.939.822-5.492-2.512-7.212-1.788s-1.018,3.712-2.414,4.3-2.2-1.147-4.655-.113-1.26,4.67-4.73,6.134-4.994-1.23-8.344.181S9.544,36.364,7.175,37.36s-3.365-.754-5.055,0S.023,40.747,0,40.913l.928,2.2L70.412,13.851" transform="translate(13.331 39.872)" fill="#adc7f7" stroke="#263238" stroke-miterlimit="10" stroke-width="1.2"/>
        <path id="Path-101" data-name="Path" d="M0,0,14.07,33.429,86.821,2.807" transform="translate(0.151 49.536)" fill="none" stroke="#263238" stroke-linecap="round" stroke-linejoin="round" stroke-miterlimit="10" stroke-width="1.2"/>
        <path id="Path-102" data-name="Path" d="M24.69.07.548,10.24a.891.891,0,1,0,.687,1.645L25.377,1.715A.893.893,0,1,0,24.683.07Z" transform="translate(39.362 65.762)" fill="#263238"/>
        <rect id="Rectangle-59" data-name="Rectangle" width="3.478" height="3.478" rx="0.567" transform="translate(79.419 24.577) rotate(-22.82)" fill="#bfbfbf" stroke="#263238" stroke-miterlimit="10" stroke-width="1.2"/>
        <path id="Path-103" data-name="Path" d="M10.214.769.558,4.835A.415.415,0,0,1,.03,4.617.4.4,0,0,1,.248,4.1L9.905.03a.4.4,0,0,1,.521.219.392.392,0,0,1-.211.521Z" transform="translate(84.611 18.688)" fill="#263238"/>
        <path id="Path-104" data-name="Path" d="M7.277.793.562,3.614A.408.408,0,0,1,.253,2.86L6.968.031a.4.4,0,0,1,.521.211.407.407,0,0,1-.211.551Z" transform="translate(85.277 21.509)" fill="#263238"/>
        <rect id="Rectangle-60" data-name="Rectangle" width="3.478" height="3.478" rx="0.567" transform="translate(82.451 31.759) rotate(-22.82)" fill="#adc7f7" stroke="#263238" stroke-miterlimit="10" stroke-width="1.2"/>
        <path id="Path-105" data-name="Path" d="M10.21.77.553,4.836a.4.4,0,0,1-.521-.219A.392.392,0,0,1,.244,4.1L9.9.031a.408.408,0,0,1,.309.754Z" transform="translate(87.633 25.869)" fill="#263238"/>
        <path id="Path-106" data-name="Path" d="M7.275.785.568,3.607a.409.409,0,0,1-.317-.754L6.965.03a.408.408,0,0,1,.309.754Z" transform="translate(88.298 28.699)" fill="#263238"/>
        <path id="Path-107" data-name="Path" d="M30.185,77.547,19.721,81.952,0,35.094a11.611,11.611,0,0,0,3.3-6.466C4.474,22.352,3.644,2.171,19.359.088s2.459,33.256,3.184,39.985C23.207,46.215,32.162,64.042,30.185,77.547Z" transform="translate(24.746 101.459)" fill="rgba(0,0,0,0.7)" opacity="0.2"/>
      </g>
      <path id="Path-108" data-name="Path" d="M177.5,155.671,75.979,198.395,65.515,202.8,45.794,155.942,0,47.13,111.981,0,177.5,155.671Z" transform="translate(21.2 0.226)" fill="none" stroke="#263238" stroke-linecap="round" stroke-linejoin="round" stroke-miterlimit="10" stroke-width="1.2"/>
      <path id="Path-109" data-name="Path" d="M90.231,55.429C92,49.393,98.877,30.064,97.971,21.517a8.593,8.593,0,0,0-.483-2.082c-2.414-6.383-12.282-5.764-16.077-.475-4.157,5.817-7.544,16.288-7.846,22.633a19.729,19.729,0,0,1-3.018,8.948h0a22.58,22.58,0,0,1-2,2.837L46.051,0a30.441,30.441,0,0,0-5.892,6.571,10.879,10.879,0,0,0-1.735,4.579c-.46,5.266-6.42,26.926-8.872,35.979-.053.2-.106.385-.151.566-2.384,8.767,3.908,41.328,2.1,50.789s-2.912,9.242-3.176,15.964c-.189,4.9-7.2,19.812-15.089,35.119-4.527,8.774-9.295,17.661-13.24,24.9l57.579-2.392c1-6.994,2.022-14.38,2.957-21.532a79.758,79.758,0,0,1,1.72-8.834h0c1.267-5.13,2.814-9.77,3.772-12.486a116,116,0,0,0,3.018-12.139c6.7-7.092,15.481-18.235,18.024-25.779v-.053a9.385,9.385,0,0,0,.573-4.889,22.369,22.369,0,0,1-.46-4.119h0C86.889,74.048,88.752,60.446,90.231,55.429Z" transform="translate(0.626 108.284)" fill="#fff"/>
      <path id="Path-110" data-name="Path" d="M30.374,50.615c-1.788,3.584-3.938,7.062-5.281,11.075s-2.844,4.587-6.873,7.733-6.971-2.037-6.971-2.037,5.334-5.538,3.561-8.623S6.4,48,6.79,43.772,2.769,30.049,2.769,30.049s10.057-5.907,8.1-12.825C9.808,13.452,4.542,9.43,0,6.571A30.442,30.442,0,0,1,5.892,0L28.4,53.429A22.58,22.58,0,0,0,30.374,50.615Z" transform="translate(40.815 108.262)" fill="#adc7f7" opacity="0.4"/>
      <path id="Path-111" data-name="Path" d="M20.807,36.2c.136.453,3.41,11.264.649,15.768s-5.6,10.479-4.247,16.6C18.28,73.452,9.227,91.106,0,102.438,7.861,87.13,14.878,72.222,15.089,67.318c.264-6.722,1.373-6.518,3.176-15.964S13.738,9.332,16.16.566c.045-.181.1-.37.151-.566,1.758,9.936,5.847,29.725,6.971,36.085C24.663,44.2,20.928,36.537,20.807,36.2Z" transform="translate(13.897 155.429)" fill="#adc7f7" opacity="0.4"/>
      <path id="Path-112" data-name="Path" d="M0,57.3C6.692,28.488,29.212,6.4,32.26,0,29.717,7.544,20.943,18.687,14.236,25.779a116,116,0,0,1-3.018,12.139c-.943,2.716-2.49,7.356-3.772,12.486h0C.936,58.122,0,57.3,0,57.3Z" transform="translate(55.406 199.587)" fill="#adc7f7" opacity="0.4"/>
      <path id="Path-113" data-name="Path" d="M10.43,36.362c-1.509,5.017-3.342,18.62-3.055,26.79C6.19,58.022,3.912,51.5,3.535,42.428c-.641-15.391,8.08-9.838,5.062-17.45S-3.112,27.113,1.158,11.066C4.274-.65,13.154-.545,17.71.368a8.593,8.593,0,0,1,.483,2.082C19.076,11,12.2,30.327,10.43,36.362Z" transform="translate(80.427 127.351)" fill="#adc7f7" opacity="0.4"/>
      <path id="Path-114" data-name="Path" d="M0,158.56c7.212-13.2,14.236-26.767,19.283-41.4.6-2.1-.2-4.851.407-6.956,6.835-19-.92-38.793.355-58.265,1.079-7.673,3.531-15.391,6.028-23.139,1.154-5.59,1.584-11.852,3.433-17.48C31.407,7.077,33.278,2.15,37.33,0c7.7,17.631,15.36,35.345,22.512,53.429,3.237-1.871,3.772-6.036,4.3-9.544,1.735-8.4,3.493-16.092,6.669-23.161,3.229-5.681,11.452-8.1,16.5-3.463a7.907,7.907,0,0,1,2.309,5.455c-.981,9.747-4.044,19.615-7.129,28.729-1.215,4.21-2.452,7.733-2.972,11.913.053,1.388.083,2.075.143,3.463-1.788,7.009-.143,13.18-.551,20.136-1.562,12.546-11.6,21.283-18.861,30.6-1.8,7.009-3.584,14.017-6.036,21.056C51.2,149.175,50.23,159.586,49.2,169.733" transform="translate(9.385 108.307)" fill="none" stroke="#263238" stroke-linecap="round" stroke-linejoin="round" stroke-miterlimit="10" stroke-width="1.2"/>
      <path id="Path-115" data-name="Path" d="M11.505,0a46.707,46.707,0,0,0-3.32,8.238C7.243,11.935,2.467,11.407,0,13.7" transform="translate(57.692 161.714)" fill="none" stroke="#263238" stroke-linecap="round" stroke-linejoin="round" stroke-miterlimit="10" stroke-width="1.2"/>
      <path id="Path-116" data-name="Path" d="M0,0S6.5,2.263,10.283,5.243a19.662,19.662,0,0,0,6.579,3.674" transform="translate(51.181 155.203)" fill="none" stroke="#263238" stroke-linecap="round" stroke-linejoin="round" stroke-miterlimit="10" stroke-width="1.2"/>
      <path id="Path-117" data-name="Path" d="M0,5.953s5.281,1.471,9.129-.377A34.38,34.38,0,0,1,10.117,0" transform="translate(47.039 133.143)" fill="none" stroke="#263238" stroke-linecap="round" stroke-linejoin="round" stroke-miterlimit="10" stroke-width="1.2"/>
      <path id="Path-118" data-name="Path" d="M0,0S.053.754,2.724.754" transform="translate(57.42 139.48)" fill="none" stroke="#263238" stroke-linecap="round" stroke-linejoin="round" stroke-miterlimit="10" stroke-width="1.2"/>
      <path id="Path-119" data-name="Path" d="M8.238,0A35.806,35.806,0,0,0,0,13.037" transform="translate(61.404 225.366)" fill="none" stroke="#263238" stroke-linecap="round" stroke-linejoin="round" stroke-miterlimit="10" stroke-width="1.2"/>
      <path id="Path-120" data-name="Path" d="M.008,0c-.241,4.527,5.07,20.581,6.677,28.563S8.9,42.188,8.9,42.188" transform="translate(29.687 157.617)" fill="none" stroke="#263238" stroke-linecap="round" stroke-linejoin="round" stroke-miterlimit="10" stroke-width="1.2"/>
    </g>
  </g>
</svg>
