<?xml version="1.0" encoding="UTF-8"?>
<svg width="20px" height="20px" viewBox="0 0 20 20" version="1.1" xmlns="http://www.w3.org/2000/svg" xmlns:xlink="http://www.w3.org/1999/xlink">
    <title>email-24px</title>
    <g id="service" stroke="none" stroke-width="1" fill="none" fill-rule="evenodd">
        <g id="additions" transform="translate(-139.000000, -1867.000000)">
            <g id="Group-50" transform="translate(139.000000, 1623.000000)">
                <g id="email-24px" transform="translate(0.000000, 244.000000)">
                    <polygon id="Path" points="0 0 20 0 20 20 0 20"></polygon>
                    <path d="M18.3333333,5 C18.3333333,4.08333333 17.5833333,3.33333333 16.6666667,3.33333333 L3.33333333,3.33333333 C2.41666667,3.33333333 1.66666667,4.08333333 1.66666667,5 L1.66666667,15 C1.66666667,15.9166667 2.41666667,16.6666667 3.33333333,16.6666667 L16.6666667,16.6666667 C17.5833333,16.6666667 18.3333333,15.9166667 18.3333333,15 L18.3333333,5 Z M16.6666667,5 L10,9.16666667 L3.33333333,5 L16.6666667,5 Z M16.6666667,15 L3.33333333,15 L3.33333333,6.66666667 L10,10.8333333 L16.6666667,6.66666667 L16.6666667,15 Z" id="Shape" fill="#335491" fill-rule="nonzero"></path>
                </g>
            </g>
        </g>
    </g>
</svg>