<svg xmlns="http://www.w3.org/2000/svg" width="18" height="18" viewBox="0 0 18 18"><g><g><g><path fill="#335491" d="M14.222 8.998a.748.748 0 0 0-.748.749v5.988a.75.75 0 0 1-.749.749H2.245a.75.75 0 0 1-.748-.749V5.255a.75.75 0 0 1 .749-.748h5.988a.748.748 0 1 0 0-1.497H2.246A2.248 2.248 0 0 0 0 5.256v10.48a2.248 2.248 0 0 0 2.246 2.245h10.48a2.248 2.248 0 0 0 2.245-2.246V9.747a.748.748 0 0 0-.749-.749z"/></g><g><path fill="#335491" d="M7.019 8.322a.379.379 0 0 0-.103.191l-.529 2.647a.376.376 0 0 0 .441.44l2.646-.529a.373.373 0 0 0 .192-.103l5.922-5.922L12.942 2.4z"/></g><g><path fill="#335491" d="M17.412.567a1.873 1.873 0 0 0-2.646 0L13.73 1.603l2.646 2.646 1.036-1.036c.353-.352.548-.822.548-1.322 0-.5-.195-.97-.548-1.324z"/></g></g></g></svg>