<svg xmlns="http://www.w3.org/2000/svg" width="24" height="24" viewBox="0 0 24 24"><g><g><g><path fill="#335491" d="M18.963 11.994a.998.998 0 0 0-.998.998v7.985c0 .55-.447.998-.998.998H2.994a.999.999 0 0 1-.998-.998V7.004c0-.55.447-.998.998-.998h7.985a.998.998 0 1 0 0-1.996H2.994A2.998 2.998 0 0 0 0 7.004v13.973a2.998 2.998 0 0 0 2.994 2.994h13.973a2.998 2.998 0 0 0 2.994-2.994v-7.985a.997.997 0 0 0-.998-.998z"/></g><g><path fill="#335491" d="M9.362 11.087a.505.505 0 0 0-.137.254l-.705 3.53a.5.5 0 0 0 .588.586l3.528-.706a.497.497 0 0 0 .255-.136l7.897-7.897L17.26 3.19z"/></g><g><path fill="#335491" d="M23.22.75a2.497 2.497 0 0 0-3.529 0L18.31 2.13l3.528 3.528 1.381-1.381c.471-.47.731-1.097.731-1.764 0-.666-.26-1.293-.73-1.764z"/></g></g></g></svg>