<svg width="40" height="40" viewBox="0 0 40 40" fill="none" xmlns="http://www.w3.org/2000/svg">
<path fill-rule="evenodd" clip-rule="evenodd" d="M38.7623 27.3222H35.385V14.8587C35.385 14.2128 34.8613 13.6891 34.2154 13.6891H28.2931V1.22562C28.2931 0.579695 27.7694 0.0560303 27.1235 0.0560303H12.9403C12.2943 0.0560303 11.7707 0.579695 11.7707 1.22562V13.6891H5.84889C5.20296 13.6891 4.6793 14.2128 4.6793 14.8587V27.3222H1.16959C0.523665 27.3222 0 27.8458 0 28.4917V33.223C0 33.869 0.523665 34.3926 1.16959 34.3926H2.23688V37.9267C2.23688 38.5726 2.76055 39.0963 3.40647 39.0963H10.1597C10.8056 39.0963 11.3293 38.5726 11.3293 37.9267V34.3926H15.4809V37.9267C15.4809 38.5726 16.0046 39.0963 16.6505 39.0963H23.4037C24.0497 39.0963 24.5733 38.5726 24.5733 37.9267V34.3926H28.4379V37.9267C28.4379 38.5726 28.9616 39.0963 29.6075 39.0963H36.3607C37.0066 39.0963 37.5303 38.5726 37.5303 37.9267V34.3926H38.7623C39.4083 34.3926 39.9319 33.869 39.9319 33.223V28.4917C39.9319 27.8458 39.4083 27.3222 38.7623 27.3222ZM33.0458 27.3222H21.2017V16.0283H23.5618V19.1745C23.5618 19.8205 24.0855 20.3441 24.7314 20.3441H29.5161C30.162 20.3441 30.6857 19.8205 30.6857 19.1745V16.0283H33.0458V27.3222ZM25.901 18.0049H28.3465V16.0283H25.901V18.0049ZM21.2547 2.39521V4.37182H18.8091V2.39521H21.2547ZM16.4699 2.39521H14.1099V13.6891H25.9539V2.39521H23.5938V5.54141C23.5938 6.18734 23.0702 6.711 22.4242 6.711H17.6395C16.9936 6.711 16.4699 6.18734 16.4699 5.54141V2.39521ZM14.1633 16.0283V18.005H11.7177V16.0283H14.1633ZM9.37856 16.0283H7.01848V27.3222H18.8625V16.0283H16.5025V19.1745C16.5025 19.8204 15.9788 20.3441 15.3329 20.3441H10.5481C9.90222 20.3441 9.37856 19.8204 9.37856 19.1745V16.0283ZM8.9901 36.7571H4.57606V34.3926H8.9901V36.7571ZM17.8201 36.7571H22.2342V34.3926H17.8201V36.7571ZM35.1912 36.7571H30.7772V34.3926H35.1912V36.7571ZM2.33918 32.0535C13.7216 32.0503 26.1986 32.0504 37.5927 32.0535V29.6614H2.33918V32.0535Z" fill="#335491"/>
</svg>
