<svg xmlns="http://www.w3.org/2000/svg" width="40" height="31" viewBox="0 0 40 31"><g><g><g><path fill="#2f5095" d="M2.344 15.234v-4.687c0-.646.526-1.172 1.173-1.172h5.868v7.031H3.517a1.174 1.174 0 0 1-1.173-1.172zm23.593-8.327v11.957a8.182 8.182 0 0 0-5.859-2.466h-8.36V9.373h8.36c2.293 0 4.37-.945 5.86-2.466zM14.063 19.922c0 .646-.525 1.172-1.171 1.172h-1.172V18.75h2.344zm-7.03-1.172h2.353v9.375H7.031zM5.858 30.469h7.032a1.172 1.172 0 0 0 0-2.344h-1.172v-4.688h1.172a3.52 3.52 0 0 0 3.515-3.515V18.75h3.672c3.231 0 5.86 2.629 5.86 5.86a1.172 1.172 0 0 0 2.343 0V1.171a1.172 1.172 0 0 0-2.343 0c0 3.23-2.629 5.86-5.86 5.86H3.516A3.52 3.52 0 0 0 0 10.546v4.687a3.52 3.52 0 0 0 3.516 3.516h1.172v10.547c0 .647.524 1.172 1.171 1.172z"/></g><g><path fill="#2f5095" d="M38.453 7.09l-7.031 2.344a1.172 1.172 0 0 0 .74 2.224l7.032-2.344a1.172 1.172 0 0 0-.741-2.224z"/></g><g><path fill="#2f5095" d="M39.194 16.464l-7.031-2.344a1.172 1.172 0 0 0-.741 2.224l7.03 2.344a1.172 1.172 0 0 0 .742-2.224z"/></g></g></g></svg>