<svg width="40" height="40" viewBox="0 0 40 40" fill="none" xmlns="http://www.w3.org/2000/svg">
<path fill-rule="evenodd" clip-rule="evenodd" d="M27.5445 28.4995C28.8352 26.9359 30.7876 25.9375 32.9688 25.9375C36.8458 25.9375 40 29.0917 40 32.9688C40 36.8458 36.8458 40 32.9688 40C28.0891 40 24.673 35.1146 26.3739 30.53L20.9284 27.3495C18.7716 30.0352 15.4623 31.7578 11.7578 31.7578C5.27453 31.7578 0 26.4833 0 20C0 13.5167 5.27453 8.24219 11.7578 8.24219C15.4698 8.24219 18.7851 9.9718 20.9414 12.6669L26.3963 9.52906C24.6448 4.93586 28.0596 0 32.9688 0C36.8458 0 40 3.15422 40 7.03125C40 10.9083 36.8458 14.0625 32.9688 14.0625C30.8103 14.0625 28.8762 13.0846 27.5854 11.5488L22.2189 14.6358C23.9541 18.0061 23.9468 22.0228 22.2089 25.3831L27.5445 28.4995ZM37.6562 7.03125C37.6562 4.44656 35.5534 2.34375 32.9688 2.34375C30.3841 2.34375 28.2812 4.44656 28.2812 7.03125C28.2812 9.61594 30.3841 11.7188 32.9688 11.7188C35.5534 11.7188 37.6562 9.61594 37.6562 7.03125ZM11.7578 29.4141C6.56687 29.4141 2.34375 25.1909 2.34375 20C2.34375 14.8091 6.56687 10.5859 11.7578 10.5859C16.9487 10.5859 21.1719 14.8091 21.1719 20C21.1719 25.1909 16.9487 29.4141 11.7578 29.4141ZM28.2812 32.9688C28.2812 35.5534 30.3841 37.6562 32.9688 37.6562C35.5534 37.6562 37.6562 35.5534 37.6562 32.9688C37.6562 30.3841 35.5534 28.2812 32.9688 28.2812C30.3841 28.2812 28.2812 30.3841 28.2812 32.9688Z" fill="#335491"/>
</svg>
