<svg xmlns="http://www.w3.org/2000/svg" width="202" height="199" viewBox="0 0 202 199"><g><g><g><g opacity=".7"><path fill="#fff" d="M19.279 62.015S6.759 94.35 24.354 126.91c17.596 32.56 53.838 49.76 82.846 64.468 29.007 14.708 59.128 7.545 73.441-16.545 14.313-24.09-5.317-41.286-5.344-75.637-.027-34.352 5.142-43.446-13.473-72.467C143.209-2.292 97.575-8.72 63.066 12.806 28.557 34.332 19.28 62.015 19.28 62.015z"/></g><g><path fill="#adc7f7" d="M91.281 10.026c55.689-4.94 55.8 26.466 80.897 55.747 25.096 29.282 30.471 42.553 21.009 76.307-9.463 33.755-41.345 60.211-80.79 45.22-39.444-14.99-62.038-.597-86.918-13.922-24.88-13.325-34.132-39.036-15.903-69.346 18.229-30.31 13.02-87.889 81.705-94.006z"/></g><g opacity=".7"><path fill="#fff" d="M91.281 10.026c55.689-4.94 55.8 26.466 80.897 55.747 25.096 29.282 30.471 42.553 21.009 76.307-9.463 33.755-41.345 60.211-80.79 45.22-39.444-14.99-62.038-.597-86.918-13.922-24.88-13.325-34.132-39.036-15.903-69.346 18.229-30.31 13.02-87.889 81.705-94.006z"/></g></g><g><g transform="rotate(-11.89 100.5 20)"><path fill="none" stroke="#263238" stroke-linecap="round" stroke-linejoin="round" stroke-miterlimit="20" stroke-width=".5" d="M93.81 14.809c0-1.054.855-1.909 1.909-1.909h10.118c1.054 0 1.909.855 1.909 1.909v10.118a1.909 1.909 0 0 1-1.91 1.909H95.72a1.909 1.909 0 0 1-1.909-1.91z"/></g><g><path fill="none" stroke="#263238" stroke-linecap="round" stroke-linejoin="round" stroke-miterlimit="20" stroke-width=".5" d="M100.2 17.09l1.168 5.56"/></g><g><path fill="none" stroke="#263238" stroke-linecap="round" stroke-linejoin="round" stroke-miterlimit="20" stroke-width=".5" d="M103.56 19.28L98 20.452"/></g><g transform="rotate(-11.89 192.5 117.5)"><path fill="none" stroke="#263238" stroke-linecap="round" stroke-linejoin="round" stroke-miterlimit="20" stroke-width=".5" d="M186.18 112.779c0-1.054.855-1.909 1.909-1.909h10.118c1.054 0 1.909.855 1.909 1.909v10.118a1.909 1.909 0 0 1-1.91 1.909H188.09a1.909 1.909 0 0 1-1.909-1.91z"/></g><g><path fill="none" stroke="#263238" stroke-linecap="round" stroke-linejoin="round" stroke-miterlimit="20" stroke-width=".5" d="M194.703 115.45l-3.103 4.76"/></g><g><path fill="none" stroke="#263238" stroke-linecap="round" stroke-linejoin="round" stroke-miterlimit="20" stroke-width=".5" d="M195.53 119.388l-4.76-3.108"/></g><g transform="rotate(3.434 67.5 176.5)"><path fill="none" stroke="#263238" stroke-linecap="round" stroke-linejoin="round" stroke-miterlimit="20" stroke-width=".5" d="M60.5 171.319c0-1.054.855-1.909 1.909-1.909h10.143c1.054 0 1.909.855 1.909 1.909v10.143a1.909 1.909 0 0 1-1.91 1.909H62.41a1.909 1.909 0 0 1-1.909-1.91z"/></g><g><path fill="none" stroke="#263238" stroke-linecap="round" stroke-linejoin="round" stroke-miterlimit="20" stroke-width=".5" d="M70.637 176.048l-5.677-.327"/></g><g transform="rotate(18.33 10 109)"><path fill="none" stroke="#263238" stroke-linecap="round" stroke-linejoin="round" stroke-miterlimit="20" stroke-width=".5" d="M3.11 104.609c0-1.054.855-1.909 1.909-1.909h10.118c1.054 0 1.909.855 1.909 1.909v10.118a1.909 1.909 0 0 1-1.91 1.909H5.02a1.909 1.909 0 0 1-1.909-1.91z"/></g><g><path fill="none" stroke="#263238" stroke-linecap="round" stroke-linejoin="round" stroke-miterlimit="20" stroke-width=".5" d="M13.63 107.88l-7.11 3.57"/></g><g><path fill="none" stroke="#263238" stroke-linecap="round" stroke-linejoin="round" stroke-miterlimit="20" stroke-width=".5" d="M9.556 106.44a.992.992 0 1 1-1.786.867.992.992 0 0 1 1.786-.866z"/></g><g><path fill="none" stroke="#263238" stroke-linecap="round" stroke-linejoin="round" stroke-miterlimit="20" stroke-width=".5" d="M12.376 112.03a.993.993 0 1 1-1.786.867.993.993 0 0 1 1.786-.866z"/></g></g><g><g><path fill="#adc7f7" d="M104.51 166.974a8.272 8.272 0 1 1-13.614-9.401 8.272 8.272 0 0 1 13.615 9.4z"/></g><g><g opacity=".3"><path fill-opacity=".7" d="M103.427 166.221a6.961 6.961 0 1 1-11.45-7.919 6.961 6.961 0 0 1 11.45 7.92z"/></g><g><path fill="none" stroke="#263238" stroke-linecap="round" stroke-linejoin="round" stroke-miterlimit="20" stroke-width=".5" d="M103.427 166.221a6.961 6.961 0 1 1-11.45-7.919 6.961 6.961 0 0 1 11.45 7.92z"/></g><g><path fill="#adc7f7" d="M99.483 158.79l.337-.48.835.575-.336.485c.624.651.61 1.464 0 2.344l-.144.207-.966-.67.189-.269c.319-.449.256-.768-.067-.992-.324-.225-.634-.18-.957.287-.323.467-.36.898-.05 1.94.373 1.249.306 1.958-.206 2.695-.61.898-1.383 1.185-2.21.835l-.327.472-.822-.57.328-.477c-.634-.655-.611-1.477 0-2.362l.305-.45.965.67-.35.508c-.323.449-.233.772.09 1.001.323.23.647.198.97-.27.323-.466.364-.925.05-1.94-.382-1.235-.31-1.953.206-2.694.58-.871 1.338-1.181 2.16-.844z"/><path fill="none" stroke="#263238" stroke-linecap="round" stroke-linejoin="round" stroke-miterlimit="20" stroke-width=".5" d="M99.483 158.79l.337-.48v0l.835.575v0l-.336.485c.624.651.61 1.464 0 2.344l-.144.207v0l-.966-.67v0l.189-.269c.319-.449.256-.768-.067-.992-.324-.225-.634-.18-.957.287-.323.467-.36.898-.05 1.94.373 1.249.306 1.958-.206 2.695-.61.898-1.383 1.185-2.21.835l-.327.472v0l-.822-.57v0l.328-.477c-.634-.655-.611-1.477 0-2.362l.305-.45v0l.965.67v0l-.35.508c-.323.449-.233.772.09 1.001.323.23.647.198.97-.27.323-.466.364-.925.05-1.94-.382-1.235-.31-1.953.206-2.694.58-.871 1.338-1.181 2.16-.844z"/></g><g opacity=".2"><path fill-opacity=".7" d="M95.39 155.557a11.147 11.147 0 0 1-5.452 9.588 8.268 8.268 0 0 1 5.39-10.805c.043.404.064.81.062 1.217z"/></g></g><g><path fill="none" stroke="#263238" stroke-linecap="round" stroke-linejoin="round" stroke-miterlimit="20" stroke-width=".5" d="M104.51 166.974a8.272 8.272 0 1 1-13.614-9.401 8.272 8.272 0 0 1 13.615 9.4z"/></g><g><path fill="#adc7f7" d="M85.887 163.584a8.277 8.277 0 1 0 0-16.554 8.277 8.277 0 0 0 0 16.554z"/><path fill="none" stroke="#263238" stroke-linecap="round" stroke-linejoin="round" stroke-miterlimit="20" stroke-width=".5" d="M85.887 163.584a8.277 8.277 0 1 0 0-16.554 8.277 8.277 0 0 0 0 16.554z"/></g><g opacity=".3"><path fill-opacity=".7" d="M85.891 162.262a6.961 6.961 0 1 0 0-13.922 6.961 6.961 0 0 0 0 13.922z"/></g><g><path fill="none" stroke="#263238" stroke-linecap="round" stroke-linejoin="round" stroke-miterlimit="20" stroke-width=".5" d="M85.891 162.262a6.961 6.961 0 1 0 0-13.922 6.961 6.961 0 0 0 0 13.922z"/></g><g><path fill="#adc7f7" d="M85.376 151.424v-.584h1.015v.584c.898.184 1.348.858 1.348 1.931v.234h-1.177v-.328c0-.566-.225-.782-.62-.782s-.62.216-.62.782c0 .566.225.956 1.06 1.625 1.015.813 1.348 1.433 1.348 2.336 0 1.073-.45 1.765-1.348 1.944v.575h-1.015v-.575c-.898-.18-1.347-.87-1.347-1.944v-.54h1.172v.62c0 .566.247.769.642.769.396 0 .647-.203.647-.768 0-.566-.224-.97-1.064-1.626-1.015-.804-1.348-1.433-1.348-2.34-.004-1.042.436-1.72 1.307-1.913z"/><path fill="none" stroke="#263238" stroke-linecap="round" stroke-linejoin="round" stroke-miterlimit="20" stroke-width=".5" d="M85.376 151.424v-.584 0h1.015v.584c.898.184 1.348.858 1.348 1.931v.234h-1.177v0-.328c0-.566-.225-.782-.62-.782s-.62.216-.62.782c0 .566.225.956 1.06 1.625 1.015.813 1.348 1.433 1.348 2.336 0 1.073-.45 1.765-1.348 1.944v.575h-1.015v0-.575c-.898-.18-1.347-.87-1.347-1.944v-.54 0h1.172v.62c0 .566.247.769.642.769.396 0 .647-.203.647-.768 0-.566-.224-.97-1.064-1.626-1.015-.804-1.348-1.433-1.348-2.34-.004-1.042.436-1.72 1.307-1.913z"/></g><g transform="rotate(-57.35 125.5 158)"><path fill="#adc7f7" d="M125.367 166.064a8.277 8.277 0 1 0 0-16.554 8.277 8.277 0 0 0 0 16.554z"/><path fill="none" stroke="#263238" stroke-linecap="round" stroke-linejoin="round" stroke-miterlimit="20" stroke-width=".5" d="M125.367 166.064a8.277 8.277 0 1 0 0-16.554 8.277 8.277 0 0 0 0 16.554z"/></g><g opacity=".3"><path fill-opacity=".7" d="M130.471 153.057a6.961 6.961 0 1 1-9.835-.364 6.952 6.952 0 0 1 9.835.364z"/></g><g><path fill="none" stroke="#263238" stroke-linecap="round" stroke-linejoin="round" stroke-miterlimit="20" stroke-width=".5" d="M130.471 153.057a6.961 6.961 0 1 1-9.835-.364 6.952 6.952 0 0 1 9.835.364z"/></g><g><path fill="#adc7f7" d="M122.36 155.3l-.4-.448.741-.692.4.45c.772-.45 1.563-.28 2.29.507l.17.18-.857.799-.225-.238c-.386-.414-.696-.418-.983-.149-.287.27-.31.58.072.993.382.413.822.548 1.886.471 1.298-.098 1.976.117 2.591.782.728.786.858 1.603.337 2.335l.39.422-.745.692-.39-.422c-.777.476-1.577.278-2.304-.508l-.373-.395.862-.8.422.45c.387.413.706.395.997.126.292-.27.333-.589-.053-1.002-.387-.413-.827-.557-1.882-.449-1.294.103-1.98-.121-2.592-.786-.723-.79-.862-1.585-.354-2.317z"/><path fill="none" stroke="#263238" stroke-linecap="round" stroke-linejoin="round" stroke-miterlimit="20" stroke-width=".5" d="M122.36 155.3l-.4-.448v0l.741-.692v0l.4.45c.772-.45 1.563-.28 2.29.507l.17.18v0l-.857.799v0l-.225-.238c-.386-.414-.696-.418-.983-.149-.287.27-.31.58.072.993.382.413.822.548 1.886.471 1.298-.098 1.976.117 2.591.782.728.786.858 1.603.337 2.335l.39.422v0l-.745.692v0l-.39-.422c-.777.476-1.577.278-2.304-.508l-.373-.395v0l.862-.8v0l.422.45c.387.413.706.395.997.126.292-.27.333-.589-.053-1.002-.387-.413-.827-.557-1.882-.449-1.294.103-1.98-.121-2.592-.786-.723-.79-.862-1.585-.354-2.317z"/></g></g><g><g opacity=".2"><path fill-opacity=".7" d="M121.965 121.82s-.036 17.174 0 18.175c.036 1.002 1.347 7.033 1.347 7.033l-4.172 7.689 3.593 2.892 6.983-6.862s5.946 3.669 7.033 8.923c1.087 5.255 7.559 9.081 14.273 23.632 6.714 14.55 14.371-32.555 14.371-32.555l-20.717-26.084z"/></g><g><path fill="#fff" d="M185.295 29.56l-6.346 61.922-3.903 38.093-54.539-5.587-10.612-1.087-6.795-.696 6.022-58.787 4.227-41.228 71.946 7.37z"/></g><g><g><path fill="#263238" d="M164.394 31.89l-31.055-3.184a1.06 1.06 0 0 0-.216 2.11L164.178 34a1.06 1.06 0 1 0 .216-2.11z"/></g><g><path fill="#263238" d="M156.192 35.407l-15.526-1.594a.53.53 0 1 0-.108 1.055l15.526 1.594a.534.534 0 0 0 .467-.865.525.525 0 0 0-.36-.19z"/></g><g><path fill="#263238" d="M173.274 81.108l-50.408-5.165a.53.53 0 0 0-.583.45.534.534 0 0 0 .476.583l50.407 5.205a.53.53 0 0 0 .58-.476.525.525 0 0 0-.472-.597z"/></g><g><path fill="#263238" d="M172.903 84.908l-58.63-6.005a.525.525 0 0 0-.58.472.53.53 0 0 0 .45.583l58.612 6.005a.53.53 0 1 0 .108-1.055z"/></g><g><path fill="#263238" d="M156.082 87.018l-42.215-4.325a.53.53 0 0 0-.112 1.055l42.215 4.325a.53.53 0 0 0 .58-.476.525.525 0 0 0-.468-.58z"/></g><g transform="rotate(-84.15 142 98)"><path fill="#bfbfbf" d="M133.5 68.49h16.823v59.398H133.5z"/><path fill="none" stroke="#263238" stroke-miterlimit="20" stroke-width=".5" d="M133.5 68.49v0h16.823v59.398H133.5v0z"/></g><g transform="rotate(-39.8 131.5 57.5)"><path fill="#adc7f7" d="M131.894 70.468c7.265 0 13.154-5.889 13.154-13.154S139.16 44.16 131.894 44.16s-13.154 5.89-13.154 13.154c0 7.265 5.89 13.154 13.154 13.154z"/></g><g opacity=".5" transform="rotate(-39.8 131.5 57.5)"><path fill="#fff" d="M131.894 70.468c7.265 0 13.154-5.889 13.154-13.154S139.16 44.16 131.894 44.16s-13.154 5.89-13.154 13.154c0 7.265 5.89 13.154 13.154 13.154z"/></g><g transform="rotate(-39.8 131.5 57.5)"><path fill="none" stroke="#263238" stroke-miterlimit="20" stroke-width=".5" d="M131.894 70.468c7.265 0 13.154-5.889 13.154-13.154S139.16 44.16 131.894 44.16s-13.154 5.89-13.154 13.154c0 7.265 5.89 13.154 13.154 13.154z"/></g><g><path fill="#fff" d="M132.28 57.289l10.94 5.502a12.575 12.575 0 0 0-1.446-13.231z"/></g><g><path fill="#adc7f7" d="M132.35 56.692l9.162-7.455a12.539 12.539 0 0 0-5.116-3.647l-1.666 4.536z"/></g><g><path fill="#757575" d="M133.385 44.86l-1.105 10.832 3.728-10.244c-.851-.29-1.73-.487-2.623-.588z"/></g><g><path fill="#999" d="M131.706 57.191l1.271-12.377A12.575 12.575 0 0 0 120.38 62.33z"/></g><g><path fill="#bfbfbf" d="M130.623 69.83c5.11.52 10.023-2.121 12.409-6.67l-11.133-5.6-11.349 5.156a12.575 12.575 0 0 0 10.073 7.113z"/></g><g transform="rotate(5.85 152.5 49.5)"><path fill="#adc7f7" d="M151.12 48.936c0-.13.106-.236.236-.236h1.598c.13 0 .236.106.236.236v1.598c0 .13-.105.236-.236.236h-1.598a.236.236 0 0 1-.236-.236z"/><path fill="none" stroke="#263238" stroke-miterlimit="20" stroke-width=".5" d="M151.12 48.936c0-.13.106-.236.236-.236h1.598c.13 0 .236.106.236.236v1.598c0 .13-.105.236-.236.236h-1.598a.236.236 0 0 1-.236-.236z"/></g><g><path fill="#263238" d="M173.857 51.68L154.52 49.7a.238.238 0 0 1 .05-.45l19.338 1.945a.238.238 0 0 1-.05.471z"/></g><g><path fill="#263238" d="M171.865 52.52l-17.443-1.797a.238.238 0 0 1-.125-.42.234.234 0 0 1 .175-.051l17.443 1.796a.238.238 0 0 1-.05.472z"/></g><g transform="rotate(5.85 151.5 54.5)"><path fill="#757575" d="M150.65 53.546c0-.13.106-.236.236-.236h1.598c.13 0 .236.106.236.236v1.598c0 .13-.105.236-.236.236h-1.598a.236.236 0 0 1-.236-.236z"/><path fill="none" stroke="#263238" stroke-linecap="round" stroke-linejoin="round" stroke-miterlimit="20" stroke-width=".5" d="M150.65 53.546c0-.13.106-.236.236-.236h1.598c.13 0 .236.106.236.236v1.598c0 .13-.105.236-.236.236h-1.598a.236.236 0 0 1-.236-.236z"/></g><g><path fill="#263238" d="M173.39 56.292l-19.348-1.98a.238.238 0 0 1 .05-.472l19.333 1.98c.13.015.226.13.216.261a.238.238 0 0 1-.252.211z"/></g><g><path fill="#263238" d="M171.385 57.133l-17.438-1.796a.24.24 0 0 1 .045-.476l17.443 1.796a.24.24 0 1 1-.05.476z"/></g><g transform="rotate(5.85 151.5 59)"><path fill="#999" d="M150.17 58.166c0-.13.106-.236.236-.236h1.598c.13 0 .236.106.236.236v1.598c0 .13-.105.236-.236.236h-1.598a.236.236 0 0 1-.236-.236z"/><path fill="none" stroke="#263238" stroke-linecap="round" stroke-linejoin="round" stroke-miterlimit="20" stroke-width=".5" d="M150.17 58.166c0-.13.106-.236.236-.236h1.598c.13 0 .236.106.236.236v1.598c0 .13-.105.236-.236.236h-1.598a.236.236 0 0 1-.236-.236z"/></g><g><path fill="#263238" d="M172.906 60.911l-19.311-1.985a.238.238 0 1 1 .049-.472l19.334 1.981a.24.24 0 0 1-.05.476z"/></g><g><path fill="#263238" d="M170.915 61.743l-17.443-1.796a.238.238 0 0 1-.21-.26.243.243 0 0 1 .26-.216l17.443 1.796a.24.24 0 0 1-.05.476z"/></g><g transform="rotate(5.85 150.5 63.5)"><path fill="#bfbfbf" d="M149.7 62.786c0-.13.106-.236.236-.236h1.598c.13 0 .236.106.236.236v1.598c0 .13-.105.236-.236.236h-1.598a.236.236 0 0 1-.236-.236z"/><path fill="none" stroke="#263238" stroke-miterlimit="20" stroke-width=".5" d="M149.7 62.786c0-.13.106-.236.236-.236h1.598c.13 0 .236.106.236.236v1.598c0 .13-.105.236-.236.236h-1.598a.236.236 0 0 1-.236-.236z"/></g><g><path fill="#263238" d="M172.45 65.527l-19.333-1.98a.238.238 0 0 1-.216-.26.243.243 0 0 1 .26-.216l19.339 1.985a.238.238 0 1 1-.05.471z"/></g><g><path fill="#263238" d="M170.445 66.358l-17.443-1.796a.238.238 0 0 1 .05-.472l17.443 1.796a.238.238 0 1 1-.05.45z"/></g><g transform="rotate(5.85 150.5 68.5)"><path fill="#fff" d="M149.23 67.396c0-.13.106-.236.236-.236h1.598c.13 0 .236.106.236.236v1.598c0 .13-.105.236-.236.236h-1.598a.236.236 0 0 1-.236-.236z"/><path fill="none" stroke="#263238" stroke-linecap="round" stroke-linejoin="round" stroke-miterlimit="20" stroke-width=".5" d="M149.23 67.396c0-.13.106-.236.236-.236h1.598c.13 0 .236.106.236.236v1.598c0 .13-.105.236-.236.236h-1.598a.236.236 0 0 1-.236-.236z"/></g><g><path fill="#263238" d="M171.967 70.14l-19.338-1.98a.238.238 0 0 1 .05-.45l19.324 1.958a.238.238 0 1 1-.05.45z"/></g><g><path fill="#263238" d="M169.968 70.962l-17.443-1.796a.238.238 0 1 1 .049-.472l17.439 1.797a.238.238 0 1 1-.045.471z"/></g><g transform="rotate(-174.15 164.5 100.5)"><path fill="#757575" d="M163.69 97.66h1.11v6.346h-1.11z"/><path fill="none" stroke="#263238" stroke-linecap="round" stroke-linejoin="round" stroke-miterlimit="20" stroke-width=".5" d="M163.69 97.66v0h1.11v6.346h-1.11v0z"/></g><g transform="rotate(-174.15 164 102)"><path fill="#adc7f7" d="M163.62 100.06h1.11v2.987h-1.11z"/><path fill="none" stroke="#263238" stroke-miterlimit="20" stroke-width=".5" d="M163.62 100.06v0h1.11v2.987h-1.11v0z"/></g><g transform="rotate(-174.15 167 99.5)"><path fill="#757575" d="M166.34 96.32h1.11v6.346h-1.11z"/><path fill="none" stroke="#263238" stroke-linecap="round" stroke-linejoin="round" stroke-miterlimit="20" stroke-width=".5" d="M166.34 96.32v0h1.11v6.346h-1.11v0z"/></g><g transform="rotate(-84.15 167 99)"><path fill="#adc7f7" d="M165.4 98.94h2.986v1.11H165.4z"/><path fill="none" stroke="#263238" stroke-miterlimit="20" stroke-width=".5" d="M165.4 98.94v0h2.986v1.11H165.4v0z"/></g><g transform="rotate(-174.15 169.5 101)"><path fill="#757575" d="M168.7 97.78h1.11v6.346h-1.11z"/><path fill="none" stroke="#263238" stroke-linecap="round" stroke-linejoin="round" stroke-miterlimit="20" stroke-width=".5" d="M168.7 97.78v0h1.11v6.346h-1.11v0z"/></g><g transform="rotate(-174.15 169 100)"><path fill="#adc7f7" d="M168.77 98.76h1.11v2.987h-1.11z"/><path fill="none" stroke="#263238" stroke-miterlimit="20" stroke-width=".5" d="M168.77 98.76v0h1.11v2.987h-1.11v0z"/></g><g transform="rotate(-174.15 162 99.5)"><path fill="#757575" d="M161.33 96.16h1.11v6.346h-1.11z"/><path fill="none" stroke="#263238" stroke-linecap="round" stroke-linejoin="round" stroke-miterlimit="20" stroke-width=".5" d="M161.33 96.16v0h1.11v6.346h-1.11v0z"/></g><g transform="rotate(-174.15 162 100)"><path fill="#adc7f7" d="M161.26 98.56h1.11v2.986h-1.11z"/><path fill="none" stroke="#263238" stroke-miterlimit="20" stroke-width=".5" d="M161.26 98.56v0h1.11v2.986h-1.11v0z"/></g><g transform="rotate(-174.15 159.5 101)"><path fill="#757575" d="M158.65 97.77h1.11v6.346h-1.11z"/><path fill="none" stroke="#263238" stroke-linecap="round" stroke-linejoin="round" stroke-miterlimit="20" stroke-width=".5" d="M158.65 97.77v0h1.11v6.346h-1.11v0z"/></g><g transform="rotate(-174.15 159 102)"><path fill="#adc7f7" d="M158.55 100.41h1.11v2.987h-1.11z"/><path fill="none" stroke="#263238" stroke-miterlimit="20" stroke-width=".5" d="M158.55 100.41v0h1.11v2.987h-1.11v0z"/></g><g transform="rotate(-174.15 157 99)"><path fill="#757575" d="M156.34 95.89h1.11v6.346h-1.11z"/><path fill="none" stroke="#263238" stroke-linecap="round" stroke-linejoin="round" stroke-miterlimit="20" stroke-width=".5" d="M156.34 95.89v0h1.11v6.346h-1.11v0z"/></g><g transform="rotate(-174.15 157 100.5)"><path fill="#adc7f7" d="M156.19 99.01h1.11v2.986h-1.11z"/><path fill="none" stroke="#263238" stroke-miterlimit="20" stroke-width=".5" d="M156.19 99.01v0h1.11v2.986h-1.11v0z"/></g><g transform="rotate(-174.15 154 102)"><path fill="#757575" d="M153.51 98.93h1.11v6.346h-1.11z"/><path fill="none" stroke="#263238" stroke-linecap="round" stroke-linejoin="round" stroke-miterlimit="20" stroke-width=".5" d="M153.51 98.93v0h1.11v6.346h-1.11v0z"/></g><g transform="rotate(-174.15 154 104)"><path fill="#adc7f7" d="M153.36 102.05h1.11v2.987h-1.11z"/><path fill="none" stroke="#263238" stroke-miterlimit="20" stroke-width=".5" d="M153.36 102.05v0h1.11v2.987h-1.11v0z"/></g><g transform="rotate(-174.15 152 98)"><path fill="#757575" d="M151.43 94.7h1.11v6.346h-1.11z"/><path fill="none" stroke="#263238" stroke-linecap="round" stroke-linejoin="round" stroke-miterlimit="20" stroke-width=".5" d="M151.43 94.7v0h1.11v6.346h-1.11v0z"/></g><g transform="rotate(-174.15 152 99)"><path fill="#adc7f7" d="M151.36 97.1h1.11v2.987h-1.11z"/><path fill="none" stroke="#263238" stroke-miterlimit="20" stroke-width=".5" d="M151.36 97.1v0h1.11v2.987h-1.11v0z"/></g><g transform="rotate(-174.15 149.5 97.5)"><path fill="#757575" d="M148.98 94.08h1.11v6.346h-1.11z"/><path fill="none" stroke="#263238" stroke-linecap="round" stroke-linejoin="round" stroke-miterlimit="20" stroke-width=".5" d="M148.98 94.08v0h1.11v6.346h-1.11v0z"/></g><g transform="rotate(-174.15 149.5 97)"><path fill="#adc7f7" d="M149.06 95.05h1.11v2.986h-1.11z"/><path fill="none" stroke="#263238" stroke-miterlimit="20" stroke-width=".5" d="M149.06 95.05v0h1.11v2.986h-1.11v0z"/></g><g transform="rotate(-174.15 146.5 101)"><path fill="#757575" d="M146.1 97.79h1.11v6.346h-1.11z"/><path fill="none" stroke="#263238" stroke-linecap="round" stroke-linejoin="round" stroke-miterlimit="20" stroke-width=".5" d="M146.1 97.79v0h1.11v6.346h-1.11v0z"/></g><g transform="rotate(-174.15 147 100)"><path fill="#adc7f7" d="M146.19 98.52h1.11v2.987h-1.11z"/><path fill="none" stroke="#263238" stroke-miterlimit="20" stroke-width=".5" d="M146.19 98.52v0h1.11v2.987h-1.11v0z"/></g><g transform="rotate(-174.15 144.5 98)"><path fill="#757575" d="M143.9 94.75h1.11v6.346h-1.11z"/><path fill="none" stroke="#263238" stroke-linecap="round" stroke-linejoin="round" stroke-miterlimit="20" stroke-width=".5" d="M143.9 94.75v0h1.11v6.346h-1.11v0z"/></g><g transform="rotate(-174.15 144.5 98)"><path fill="#adc7f7" d="M143.84 96.92h1.11v2.986h-1.11z"/><path fill="none" stroke="#263238" stroke-miterlimit="20" stroke-width=".5" d="M143.84 96.92v0h1.11v2.986h-1.11v0z"/></g><g transform="rotate(-174.15 141.5 99.5)"><path fill="#757575" d="M141.23 96.15h1.11v6.346h-1.11z"/><path fill="none" stroke="#263238" stroke-linecap="round" stroke-linejoin="round" stroke-miterlimit="20" stroke-width=".5" d="M141.23 96.15v0h1.11v6.346h-1.11v0z"/></g><g transform="rotate(-174.15 142 100)"><path fill="#adc7f7" d="M141.17 98.55h1.11v2.986h-1.11z"/><path fill="none" stroke="#263238" stroke-miterlimit="20" stroke-width=".5" d="M141.17 98.55v0h1.11v2.986h-1.11v0z"/></g><g transform="rotate(-174.15 139 102)"><path fill="#757575" d="M138.46 98.73h1.11v6.346h-1.11z"/><path fill="none" stroke="#263238" stroke-linecap="round" stroke-linejoin="round" stroke-miterlimit="20" stroke-width=".5" d="M138.46 98.73v0h1.11v6.346h-1.11v0z"/></g><g transform="rotate(-174.15 139 104)"><path fill="#adc7f7" d="M138.3 102.08h1.11v2.986h-1.11z"/><path fill="none" stroke="#263238" stroke-miterlimit="20" stroke-width=".5" d="M138.3 102.08v0h1.11v2.986h-1.11v0z"/></g><g transform="rotate(-174.15 137 97.5)"><path fill="#757575" d="M136.39 94.48h1.11v6.346h-1.11z"/><path fill="none" stroke="#263238" stroke-linecap="round" stroke-linejoin="round" stroke-miterlimit="20" stroke-width=".5" d="M136.39 94.48v0h1.11v6.346h-1.11v0z"/></g><g transform="rotate(-174.15 137 99)"><path fill="#adc7f7" d="M136.29 97.11h1.11v2.987h-1.11z"/><path fill="none" stroke="#263238" stroke-miterlimit="20" stroke-width=".5" d="M136.29 97.11v0h1.11v2.987h-1.11v0z"/></g><g transform="rotate(-174.15 134.5 94.5)"><path fill="#757575" d="M134.18 91.45h1.11v6.346h-1.11z"/><path fill="none" stroke="#263238" stroke-linecap="round" stroke-linejoin="round" stroke-miterlimit="20" stroke-width=".5" d="M134.18 91.45v0h1.11v6.346h-1.11v0z"/></g><g transform="rotate(-174.15 134.5 96)"><path fill="#adc7f7" d="M134.09 94.08h1.11v2.987h-1.11z"/><path fill="none" stroke="#263238" stroke-miterlimit="20" stroke-width=".5" d="M134.09 94.08v0h1.11v2.987h-1.11v0z"/></g><g transform="rotate(-174.15 132 97.5)"><path fill="#757575" d="M131.36 94.53h1.11v6.346h-1.11z"/><path fill="none" stroke="#263238" stroke-linecap="round" stroke-linejoin="round" stroke-miterlimit="20" stroke-width=".5" d="M131.36 94.53v0h1.11v6.346h-1.11v0z"/></g><g transform="rotate(-174.15 132 97)"><path fill="#adc7f7" d="M131.43 95.51h1.11v2.987h-1.11z"/><path fill="none" stroke="#263238" stroke-miterlimit="20" stroke-width=".5" d="M131.43 95.51v0h1.11v2.987h-1.11v0z"/></g><g transform="rotate(-174.15 129 101)"><path fill="#757575" d="M128.51 97.85h1.11v6.346h-1.11z"/><path fill="none" stroke="#263238" stroke-linecap="round" stroke-linejoin="round" stroke-miterlimit="20" stroke-width=".5" d="M128.51 97.85v0h1.11v6.346h-1.11v0z"/></g><g transform="rotate(-174.15 129 100)"><path fill="#adc7f7" d="M128.63 98.34h1.11v2.987h-1.11z"/><path fill="none" stroke="#263238" stroke-miterlimit="20" stroke-width=".5" d="M128.63 98.34v0h1.11v2.987h-1.11v0z"/></g><g transform="rotate(-174.15 127 97.5)"><path fill="#757575" d="M126.39 94.02h1.11v6.346h-1.11z"/><path fill="none" stroke="#263238" stroke-linecap="round" stroke-linejoin="round" stroke-miterlimit="20" stroke-width=".5" d="M126.39 94.02v0h1.11v6.346h-1.11v0z"/></g><g transform="rotate(-174.15 127 98)"><path fill="#adc7f7" d="M126.31 96.43h1.11v2.987h-1.11z"/><path fill="none" stroke="#263238" stroke-miterlimit="20" stroke-width=".5" d="M126.31 96.43v0h1.11v2.987h-1.11v0z"/></g><g transform="rotate(-174.15 124.5 96)"><path fill="#757575" d="M124.01 92.72h1.11v6.346h-1.11z"/><path fill="none" stroke="#263238" stroke-linecap="round" stroke-linejoin="round" stroke-miterlimit="20" stroke-width=".5" d="M124.01 92.72v0h1.11v6.346h-1.11v0z"/></g><g transform="rotate(-174.15 125 95)"><path fill="#adc7f7" d="M124.11 93.45h1.11v2.987h-1.11z"/><path fill="none" stroke="#263238" stroke-miterlimit="20" stroke-width=".5" d="M124.11 93.45v0h1.11v2.987h-1.11v0z"/></g><g transform="rotate(-174.15 122 97.5)"><path fill="#757575" d="M121.32 94.44h1.11v6.346h-1.11z"/><path fill="none" stroke="#263238" stroke-linecap="round" stroke-linejoin="round" stroke-miterlimit="20" stroke-width=".5" d="M121.32 94.44v0h1.11v6.346h-1.11v0z"/></g><g transform="rotate(-174.15 122 99)"><path fill="#adc7f7" d="M121.15 97.78h1.11v2.987h-1.11z"/><path fill="none" stroke="#263238" stroke-miterlimit="20" stroke-width=".5" d="M121.15 97.78v0h1.11v2.987h-1.11v0z"/></g><g transform="rotate(-174.15 119.5 95.5)"><path fill="#757575" d="M119.04 92.21h1.11v6.346h-1.11z"/><path fill="none" stroke="#263238" stroke-linecap="round" stroke-linejoin="round" stroke-miterlimit="20" stroke-width=".5" d="M119.04 92.21v0h1.11v6.346h-1.11v0z"/></g><g transform="rotate(-174.15 119.5 97)"><path fill="#adc7f7" d="M118.92 95.09h1.11v2.986h-1.11z"/><path fill="none" stroke="#263238" stroke-miterlimit="20" stroke-width=".5" d="M118.92 95.09v0h1.11v2.986h-1.11v0z"/></g><g transform="rotate(-174.15 117 96)"><path fill="#757575" d="M116.47 92.81h1.11v6.346h-1.11z"/><path fill="none" stroke="#263238" stroke-linecap="round" stroke-linejoin="round" stroke-miterlimit="20" stroke-width=".5" d="M116.47 92.81v0h1.11v6.346h-1.11v0z"/></g><g transform="rotate(-174.15 117 97)"><path fill="#adc7f7" d="M116.32 95.92h1.11v2.986h-1.11z"/><path fill="none" stroke="#263238" stroke-miterlimit="20" stroke-width=".5" d="M116.32 95.92v0h1.11v2.986h-1.11v0z"/></g><g transform="rotate(-174.15 114.5 95)"><path fill="#757575" d="M114.07 91.74h1.11v6.346h-1.11z"/><path fill="none" stroke="#263238" stroke-linecap="round" stroke-linejoin="round" stroke-miterlimit="20" stroke-width=".5" d="M114.07 91.74v0h1.11v6.346h-1.11v0z"/></g><g transform="rotate(-174.15 115 93)"><path fill="#adc7f7" d="M114.21 92h1.11v2.987h-1.11z"/><path fill="none" stroke="#263238" stroke-miterlimit="20" stroke-width=".5" d="M114.21 92v0h1.11v2.987h-1.11v0z"/></g><g><path fill="#263238" d="M170.14 111.682l-50.403-5.17a.534.534 0 0 0-.47.865.525.525 0 0 0 .358.191l50.407 5.156a.534.534 0 0 0 .584-.476.53.53 0 0 0-.476-.566z"/></g><g><path fill="#263238" d="M169.764 115.482l-58.617-6.01a.534.534 0 0 0-.468.866c.09.11.22.178.36.19l58.612 6.009a.534.534 0 0 0 .466-.863.525.525 0 0 0-.353-.192z"/></g><g><path fill="#263238" d="M144.749 116.768l-33.993-3.485a.53.53 0 1 0-.108 1.055l33.993 3.485a.53.53 0 1 0 .108-1.055z"/></g><g opacity=".2"><path fill-opacity=".7" d="M175.702 82.852c-1.738-.14-2.34 2.631-2.34 2.631s-2.749-3.592-2.313-12.072c0 0-1.347-3.754-4.94-1.486-3.593 2.268-7.325 10.257-6.436 18.97l-6.979-23.214c-2.416.512-7.325 3.759-6.031 19.437l-7.635-8.084s-2.066-.664-3.233 1.163c-1.168 1.828-.611 14.92.354 19.815.966 4.895-1.495 14.73-1.495 14.73s-2.632-11.137-7.392-13.958l-18.13-37.374-6.032 58.787 6.795.697 10.913-5.313c-.063 2.456-.121 4.715-.3 6.4l54.538 5.586 3.903-38.093c-1.325-4.747-2.592-8.573-3.247-8.622z"/></g></g><g><path fill="none" stroke="#263238" stroke-linecap="round" stroke-linejoin="round" stroke-miterlimit="20" stroke-width=".5" d="M185.295 29.56v0l-6.346 61.922v0l-3.903 38.093v0l-54.539-5.587v0l-10.612-1.087v0l-6.795-.696v0l6.022-58.787v0l4.227-41.228v0l71.946 7.37v0z"/></g><g><path fill="#fff" d="M184.399 188.97l-31.886 5.425s-5.551-29.484-8.861-34.132c-3.31-4.648-2.695-6.557-4.312-9.687-.97-1.891-5.838-5.416-9.65-8.897-.333-.3-.656-.602-.966-.898-.135-.121-.26-.252-.387-.373a27.602 27.602 0 0 1-1.396-1.473c-.153-.17-.303-.341-.45-.512a7.275 7.275 0 0 1-1.544-2.735.696.696 0 0 1-.027-.14 1.16 1.16 0 0 1-.027-.165c-.085-.697-.175-1.491-.265-2.354 0-.17-.036-.35-.058-.53l-.027-.215c-.077-.719-.162-1.482-.26-2.268-.1-.786-.207-1.675-.333-2.533-.04-.297-.081-.593-.13-.898-.05-.333-.104-.665-.158-1.002l-.157-.867c0-.049-.022-.094-.027-.134l-.188-.997a.45.45 0 0 1-.023-.113c-.063-.292-.121-.579-.189-.87-.139-.652-.296-1.29-.449-1.91a23.68 23.68 0 0 0-1.19-3.413c-2.3-5.133.692-3.278-1.109-16.486 0 0 1.325-3.063 5.102-.616a10.617 10.617 0 0 1 2.852 2.762 12.404 12.404 0 0 1 1.733 3.593c.617 2.082.792 4.27.512 6.422 0 0 2.838 9.728 4.334 11.942 1.495 2.214 7.68-10.504 7.28-11.986a20.027 20.027 0 0 1-.319-2.012l-.085-.701a33.5 33.5 0 0 1-.086-.768c0-.126-.031-.26-.05-.39v-.158c-.053-.507-.116-1.046-.174-1.603 0-.157-.032-.306-.05-.45l-.08-.808a1.138 1.138 0 0 1 0-.134c0-.153-.036-.31-.05-.45-.036-.314-.067-.633-.099-.952l-.08-.821c-.054-.517-.104-1.033-.153-1.532-.036-.373-.072-.741-.103-1.1 0-.081 0-.162-.023-.238a316.81 316.81 0 0 1-.39-4.294s-4.492-6.655-4.94-9.79c-.45-3.135-.423-6.436 1.459-7.779 4.455-3.17 3.144 1.94 5.147 4.042s5.052 5.583 6.785 6.665c1.6 1.015 3.027 4.94 3.23 5.533-.23-.862-2.515-9.341-2.565-11.048-.058-1.796-1.433-11.3.898-14.708 2.331-3.409 5.439-.763 5.726-.09.288.674.373 9.88 1.195 12.44.822 2.56 4.262 13.235 4.262 13.235s.144-10.383.898-15.031c.755-4.648 2.794-8.282 4.77-8.488 1.976-.207 3.804 1.971 3.804 1.971s-.782 7.41-.557 9.122c.224 1.71-.324 7.89.615 11.227 0 0-.108-8.852 1.266-9.983 1.375-1.132 2.556-1.675 3.328-.899.773.777.939 6.005 1.725 9.158.786 3.152.687 7.437 1.203 12.354.517 4.918 2.551 11.744 2.147 15.647-.404 3.903-1.648 13.581-2.65 19.262-1.001 5.681-3.557 13.473-3.557 13.473s1.164 4.154.94 7.86c-.225 3.705 8.869 28.297 8.869 28.297z"/></g><g opacity=".4"><path fill="#adc7f7" d="M157.292 81.733c.61 1.895 2.654 8.236 3.67 11.402 0 0-4.456 3.274-4.348 6.32.108 3.044-.813 9.192-2.816 9.013-2.003-.18-1.796-12.957-2.475-15.108.41.925.67 1.675.723 1.823-.148-.552-2.528-9.35-2.577-11.093 0-.408-.095-1.226-.189-2.281 0 0 4.433-4.244 7.684-1.648.074.53.183 1.056.328 1.572z"/></g><g opacity=".4"><path fill="#adc7f7" d="M170.542 85.379c-2.075 1.967-5.205 5.443-5.6 8.798 0 0 1.154 9.368.66 13.473l-4.042-12.67s.144-10.383.898-15.03c0-.127.045-.257.068-.383a18.471 18.471 0 0 1 8.137-2.007 35.795 35.795 0 0 0-.175 4.972c.068.947.086 1.897.054 2.847z"/></g><g opacity=".4"><path fill="#adc7f7" d="M172.375 83.765c-.05.032-.17.13-.346.279.105-.202.222-.397.35-.584z"/></g><g opacity=".4"><path fill="#adc7f7" d="M173.426 109.666s-2.668-10.006-2.695-18.063c-.022-2.982.323-5.699 1.289-7.536.104-.202.221-.397.35-.584v.288a7.477 7.477 0 0 1 1.59-1.051c-.75 1.168-1.612 3.454-.615 7.186 1.567 5.798.202 12.907.08 19.76z"/></g><g opacity=".4"><path fill="#adc7f7" d="M136.637 128.739s.715 9.534-6.947 12.948c-.332-.301-.656-.602-.966-.899-.134-.12-.26-.251-.386-.372a27.61 27.61 0 0 1-1.397-1.473c-.157-.176-.296-.346-.449-.512a7.275 7.275 0 0 1-1.545-2.735.696.696 0 0 1-.027-.14 1.159 1.159 0 0 1-.027-.166c-.085-.696-.175-1.49-.265-2.353 0-.17-.035-.35-.058-.53l-.027-.216c-.076-.718-.162-1.482-.26-2.268-.1-.785-.207-1.675-.333-2.532-.045-.297-.085-.598-.13-.899-.05-.332-.103-.664-.157-1.001l-.157-.871c0-.05-.023-.095-.027-.135l-.189-.997a.45.45 0 0 1-.022-.112c-.063-.292-.122-.58-.189-.872-.144-.646-.3-1.284-.449-1.908 3.031-2.915 10.028-1.087 6.642-7.846 0 0 1.707-5.785-2.995-12.054 3.215 2.591 4.863 7.15 4.253 12.126 0 0 2.838 9.727 4.334 11.941 1.495 2.214 7.68-10.504 7.28-11.986a20.028 20.028 0 0 1-.32-2.012c-.026-.22-.053-.45-.085-.7a33.443 33.443 0 0 1-.085-.769c0-.126-.031-.26-.05-.39v-.158c-.053-.512-.112-1.046-.175-1.603 0-.157-.031-.305-.049-.45l-.08-.807a1.138 1.138 0 0 1 0-.135c0-.153-.037-.31-.05-.45-.036-.314-.068-.633-.099-.951l-.08-.822c-.055-.517-.104-1.033-.154-1.532-.035-.372-.067-.745-.103-1.1 0-.08 0-.162-.022-.238.12.588 2.398 11.43 3.7 13.954 1.307 2.586-4.37 16.27-7.855 14.025z"/></g><g opacity=".4"><path fill="#adc7f7" d="M178.124 139.273c-1.002 5.686-3.557 13.473-3.557 13.473s1.163 4.154.939 7.86c-.063.996.556 3.516 1.482 6.66-.27-.692-3.144-8.111-3.086-10.698.059-2.717-.714-3.467-2.245-6.804-1.532-3.337-3.822-2.969-3.822-2.969s-.898 8.322-2.982 2.852c-2.084-5.47-2.493-11.834 2.775-33.93 0 0 .795 2.772.13 11.004-.664 8.232 1.303 10.724 1.303 10.724a76.9 76.9 0 0 0 7.001-16.325s-.682 9.607-1.288 13.98c-.607 4.375 2.16-5.07 4.09-10.903 1.797-5.475 1.883-7.559 1.191-11.457.512 2.744.898 5.39.7 7.28-.386 3.885-1.63 13.572-2.631 19.253z"/></g><g opacity=".4"><path fill="#adc7f7" d="M142.1 157.8c1.554 2.47 5.358 5.735 7.635 14.766 2.277 9.032.84 18.917.84 18.917z"/></g><g opacity=".2"><path fill-opacity=".7" d="M130.022 106.512s-7.954 4.042-8.583 10.778c-2.3-5.133.692-3.278-1.109-16.486 0 0 1.325-3.063 5.102-.616a10.617 10.617 0 0 1 2.852 2.762z"/></g><g><path fill="none" stroke="#263238" stroke-linecap="round" stroke-linejoin="round" stroke-miterlimit="20" stroke-width=".5" d="M152.507 194.396v0s-5.55-29.483-8.86-34.131c-3.31-4.648-2.695-6.557-4.312-9.687-1.617-3.13-13.89-10.747-14.434-15.198-.544-4.45-1.168-12.966-3.467-18.103-2.3-5.138.691-3.279-1.114-16.487 0 0 1.347-3.063 5.106-.615 3.76 2.447 5.762 7.343 5.102 12.763 0 0 2.838 9.719 4.338 11.937 1.5 2.22 7.671-10.504 7.271-11.99-.4-1.487-1.585-14.13-1.77-16.438 0 0-4.49-6.66-4.94-9.795-.448-3.134-.421-6.435 1.46-7.774 4.455-3.17 3.144 1.94 5.147 4.042s5.052 5.578 6.782 6.665c1.729 1.087 3.238 5.627 3.238 5.627v0s-2.538-9.314-2.587-11.115c-.05-1.8-1.433-11.3.898-14.704 2.33-3.404 5.443-.768 5.73-.094.288.674.373 9.88 1.2 12.44l4.253 13.235v0s.148-10.383.925-15.031c.777-4.648 2.793-8.282 4.77-8.488 1.975-.207 3.803 1.971 3.803 1.971v0s-.781 7.41-.561 9.122c.22 1.71-.32 7.886.62 11.227 0 0-.108-8.852 1.266-9.983 1.374-1.132 2.555-1.675 3.328-.899.772.777.938 6.005 1.724 9.158.786 3.152.687 7.437 1.204 12.354.516 4.918 2.55 11.744 2.147 15.643-.405 3.898-1.649 13.585-2.655 19.27-1.006 5.686-3.547 13.474-3.547 13.474v0s1.158 4.154.934 7.859c-.225 3.705 8.883 28.37 8.883 28.37v0"/></g><g><path fill="none" stroke="#263238" stroke-linecap="round" stroke-linejoin="round" stroke-miterlimit="20" stroke-width=".5" d="M161.55 94.96c.93 2.183 3.225 11.398 4.042 12.674a4.374 4.374 0 0 0 1.751 1.661"/></g><g><path fill="none" stroke="#263238" stroke-linecap="round" stroke-linejoin="round" stroke-miterlimit="20" stroke-width=".5" d="M171.105 93.75v0s-.197 1.89.822 7.909c1.02 6.018 1.518 8.582 2.089 9.925"/></g><g><path fill="none" stroke="#263238" stroke-linecap="round" stroke-linejoin="round" stroke-miterlimit="20" stroke-width=".5" d="M152.06 95.21c1.244 3.67 1.95 9.516 2.659 11.277.71 1.76 1.347 2.124 1.347 2.124v0"/></g><g><path fill="none" stroke="#263238" stroke-linecap="round" stroke-linejoin="round" stroke-miterlimit="20" stroke-width=".5" d="M154.07 104a5.582 5.582 0 0 1 1.724 2.178"/></g><g><path fill="none" stroke="#263238" stroke-linecap="round" stroke-linejoin="round" stroke-miterlimit="20" stroke-width=".5" d="M134.87 124.88s.678 4.864 3.728 4.491"/></g><g><path fill="none" stroke="#263238" stroke-linecap="round" stroke-linejoin="round" stroke-miterlimit="20" stroke-width=".5" d="M142.143 112.89s.79 5.784-.503 8.237"/></g><g><path fill="none" stroke="#263238" stroke-linecap="round" stroke-linejoin="round" stroke-miterlimit="20" stroke-width=".5" d="M166.496 112.94v0s2.048 1.253.678 4.94c-1.37 3.687-3.754 18.517-3.754 18.517v0"/></g><g><path fill="none" stroke="#263238" stroke-linecap="round" stroke-linejoin="round" stroke-miterlimit="20" stroke-width=".5" d="M175.411 116.82c.858 3.323.934 3.409-.449 7.491s-3.642 14.084-3.642 14.084v0"/></g><g><path fill="none" stroke="#263238" stroke-linecap="round" stroke-linejoin="round" stroke-miterlimit="20" stroke-width=".5" d="M174.574 152.74s-1.347-2.694-.233-4.94"/></g><g><path fill="none" stroke="#263238" stroke-linecap="round" stroke-linejoin="round" stroke-miterlimit="20" stroke-width=".5" d="M143.65 160.27s3.386 4.756 4.86 10.078"/></g><g><path fill="#757575" d="M168.57 76.904l.916-.903.413-.121-.027.45-.84 1.072-.462-.498z"/><path fill="none" stroke="#263238" stroke-linecap="round" stroke-linejoin="round" stroke-miterlimit="20" stroke-width=".5" d="M168.57 76.904v0l.916-.903v0l.413-.121v0l-.027.45v0l-.84 1.072v0l-.462-.498v0z"/></g><g><path fill="#adc7f7" d="M169.31 77.404l-1.49 3.377-40.06 53.416-4.46-2.847 6.04-7.599 35.982-45.135 3.176-2.016c.395.102.706.41.812.804z"/></g><g opacity=".3"><path fill-opacity=".7" d="M169.31 77.403l-1.49 3.377-40.06 53.416-4.46-2.847 6.04-7.599c2.785-.287 3.252 1.347 3.252 1.347l34.513-45.044c-.34-1.213-1.796-1.447-1.796-1.447l3.175-2.016c.403.1.72.411.826.813z"/></g><g><path fill="none" stroke="#263238" stroke-linecap="round" stroke-linejoin="round" stroke-miterlimit="20" stroke-width=".5" d="M169.31 77.404v0l-1.49 3.377v0l-40.06 53.416v0l-4.46-2.847v0l6.04-7.599v0l35.982-45.135v0l3.176-2.016c.395.102.706.41.812.804z"/></g><g><path fill="#adc7f7" d="M140.822 118.378s-4.49 8.874-8.775 15.153l-3.072.795s-7.05 7.005-11.353 10.504a9.647 9.647 0 0 1-2.102-1.765s6.108-11.73 12.867-19.154a8.533 8.533 0 0 1 2.214 1.176c.877.623 1.658 1.37 2.317 2.219l7.532-9.476z"/></g><g opacity=".3"><path fill-opacity=".7" d="M140.82 118.376s-4.49 8.874-8.775 15.153l-3.072.794s-7.05 7.006-11.353 10.505l.117-1.904c4.666-7.127 10.594-14.901 12.862-17.839.877.622 1.658 1.37 2.317 2.219l-4.185 5.587 2.398-.45 9.319-14.631z"/></g><g><path fill="none" stroke="#263238" stroke-linecap="round" stroke-linejoin="round" stroke-miterlimit="20" stroke-width=".5" d="M140.822 118.378v0s-4.49 8.874-8.775 15.153l-3.072.795v0s-7.05 7.005-11.353 10.504a9.647 9.647 0 0 1-2.102-1.765s6.108-11.73 12.867-19.154a8.533 8.533 0 0 1 2.214 1.176c.877.623 1.658 1.37 2.317 2.219l7.532-9.476v0z"/></g><g><path fill="#fff" d="M156.053 108.601l-12.512 12.126-1.998 1.94c1.37-3.52.705-8.982.62-9.624v-.059-.094a20.024 20.024 0 0 1-.32-2.012c-.026-.22-.053-.449-.085-.7a33.444 33.444 0 0 1-.085-.768c0-.126-.032-.26-.05-.391v-.157c-.053-.508-.116-1.047-.175-1.604 0-.157-.031-.305-.05-.449l-.08-.808a1.134 1.134 0 0 1 0-.135c0-.153-.036-.31-.05-.449a61.846 61.846 0 0 1-.098-.952l-.081-.822c-.054-.516-.103-1.033-.153-1.531-.036-.373-.072-.741-.103-1.1 0-.081 0-.162-.022-.239a316.76 316.76 0 0 1-.391-4.293s-4.491-6.656-4.94-9.79c-.45-3.135-.422-6.436 1.46-7.779 4.454-3.17 3.143 1.94 5.146 4.042s5.052 5.582 6.786 6.665c1.733 1.082 3.184 5.591 3.184 5.591 1.244 3.665 1.95 9.512 2.659 11.272.71 1.76 1.338 2.12 1.338 2.12z"/></g><g><path fill="none" stroke="#263238" stroke-linecap="round" stroke-linejoin="round" stroke-miterlimit="20" stroke-width=".5" d="M154.07 104a5.582 5.582 0 0 1 1.724 2.178"/></g><g opacity=".4"><path fill="#adc7f7" d="M142.018 82.934c1.985 2.12 5.034 5.56 6.768 6.656-.243-.121-3.436-1.675-5.219.054-1.854 1.796-3.197 6.804-3.197 6.804s-4.491-6.656-4.94-9.79c-.45-3.135-.422-6.436 1.46-7.78 4.436-3.17 3.134 1.959 5.128 4.056z"/></g><g opacity=".4"><path fill="#adc7f7" d="M143.54 120.734l-1.998 1.94c1.37-3.521.705-8.982.62-9.625a.68.68 0 0 0 0-.152 20.025 20.025 0 0 1-.32-2.012l-.084-.7a33.444 33.444 0 0 1-.086-.769c0-.126-.031-.26-.05-.39v-.158c-.053-.512-.111-1.046-.174-1.603 0-.157-.032-.305-.05-.45l-.08-.807a1.134 1.134 0 0 1 0-.135c0-.153-.036-.31-.05-.45a62.082 62.082 0 0 1-.099-.951l-.08-.822c-.054-.517-.104-1.033-.153-1.532-.036-.372-.068-.745-.104-1.1 0-.08 0-.162-.022-.238.121.588 2.398 11.43 3.7 13.954.44.916-.017 3.377-.97 6z"/></g><g><path fill="none" stroke="#263238" stroke-linecap="round" stroke-linejoin="round" stroke-miterlimit="20" stroke-width=".5" d="M156.055 108.604v0s-.633-.364-1.347-2.124c-.714-1.76-1.415-7.608-2.659-11.277 0 0-1.522-4.491-3.256-5.596-1.733-1.105-4.787-4.545-6.781-6.665-1.994-2.12-.692-7.23-5.147-4.041-1.881 1.347-1.922 4.643-1.46 7.773.463 3.13 4.94 9.795 4.94 9.795.185 2.309 1.37 14.955 1.77 16.438"/></g><g><path fill="none" stroke="#263238" stroke-linecap="round" stroke-linejoin="round" stroke-miterlimit="20" stroke-width=".5" d="M142.143 112.89s.79 5.784-.503 8.237"/></g></g><g><g opacity=".2"><path fill-opacity=".7" d="M65.327 119.96s2.843 13.204-3.314 22.806c-6.158 9.601-10.9 12.166-13.024 15.031-2.125 2.865-10.473 18.885-10.473 18.885l-9.746-28.864 9.746-35.708z"/></g><g><path fill="#fff" d="M122.77 109.868L62.34 135.3l-6.229 2.623-11.74-27.894-27.26-64.774L83.77 17.2l39 92.668z"/></g><g><g><path fill="#263238" d="M66.545 29.26L37.771 41.386a1.062 1.062 0 1 0 .822 1.958l28.77-12.13a1.06 1.06 0 1 0-.822-1.954z"/></g><g><path fill="#263238" d="M61.046 36.303l-14.371 6.054a.531.531 0 1 0 .413.98l14.371-6.06a.53.53 0 1 0-.413-.974z"/></g><g><path fill="#bfbfbf" d="M84.722 73.2s.606 4.765-1.168 5.51c-1.621.683-3.755-1.872-5.618-1.09-1.864.78-.396 7.544-2.192 8.299-1.796.754-3.961-2.021-5.515-1.348-1.554.674-.61 4.132-2.21 4.806-1.32.552-3.206-2.21-4.715-2.816a1.145 1.145 0 0 0-.898-.045c-1.581.665-.795 7.927-2.16 8.497a2.569 2.569 0 0 1-1.213.202 8.56 8.56 0 0 0-1.54-.148c-.198.02-.392.07-.575.148-1.163.49-1.006 4.311-2.07 4.76-1.065.45-2.116-.107-3.252.369-1.136.476-1.118 2.465-2.816 3.18l.719 1.701 41.366-17.407"/><path fill="none" stroke="#263238" stroke-miterlimit="20" stroke-width=".5" d="M84.722 73.2v0s.606 4.765-1.168 5.51c-1.621.683-3.755-1.872-5.618-1.09-1.864.78-.396 7.544-2.192 8.299-1.796.754-3.961-2.021-5.515-1.348-1.554.674-.61 4.132-2.21 4.806-1.32.552-3.206-2.21-4.715-2.816a1.145 1.145 0 0 0-.898-.045c-1.581.665-.795 7.927-2.16 8.497a2.569 2.569 0 0 1-1.213.202 8.56 8.56 0 0 0-1.54-.148c-.198.02-.392.07-.575.148-1.163.49-1.006 4.311-2.07 4.76-1.065.45-2.116-.107-3.252.369-1.136.476-1.118 2.465-2.816 3.18l.719 1.701v0l41.366-17.407v0"/></g><g><path fill="none" stroke="#263238" stroke-linecap="round" stroke-linejoin="round" stroke-miterlimit="20" stroke-width=".5" d="M41.12 85.29v0l8.376 19.9v0l43.311-18.225v0"/></g><g><path fill="#757575" d="M88.05 81.095s-.207-.251-.513-.552c-.534-.517-1.383-1.172-2.03-.899-.646.274-.687 1.312-.673 2.435 0 1.347.135 2.829-.553 3.116-.583.247-1.104-.12-1.643-.525-.615-.45-1.244-.961-2.003-.642-1.276.539-.898 2.2-1.348 3.624a2.753 2.753 0 0 1-1.684 1.796c-1.1.45-2.218 0-3.274-.71-1.796-1.212-3.377-3.179-4.41-2.743-1.648.696.166 5.151-1.603 5.896-.988.418-3.036-2.694-5.026-5.389-1.571-2.124-3.107-3.974-4.041-3.593-2.134.899 1.383 11.556-.167 12.207l-.049.023a1.653 1.653 0 0 1-1.54-.149c-.557-.314-1.015-.768-1.63-.507-1.146.485-.477 4.661-1.734 5.191-1.258.53-2.017-.238-3.436.36-1.199.507-1.913 3.413-1.913 3.413l.719 1.702 41.366-17.407"/><path fill="none" stroke="#263238" stroke-linecap="round" stroke-linejoin="round" stroke-miterlimit="20" stroke-width=".5" d="M88.05 81.095v0s-.207-.251-.513-.552c-.534-.517-1.383-1.172-2.03-.899-.646.274-.687 1.312-.673 2.435 0 1.347.135 2.829-.553 3.116-.583.247-1.104-.12-1.643-.525-.615-.45-1.244-.961-2.003-.642-1.276.539-.898 2.2-1.348 3.624a2.753 2.753 0 0 1-1.684 1.796c-1.1.45-2.218 0-3.274-.71-1.796-1.212-3.377-3.179-4.41-2.743-1.648.696.166 5.151-1.603 5.896-.988.418-3.036-2.694-5.026-5.389-1.571-2.124-3.107-3.974-4.041-3.593-2.134.899 1.383 11.556-.167 12.207l-.049.023a1.653 1.653 0 0 1-1.54-.149c-.557-.314-1.015-.768-1.63-.507-1.146.485-.477 4.661-1.734 5.191-1.258.53-2.017-.238-3.436.36-1.199.507-1.913 3.413-1.913 3.413v0l.719 1.702v0l41.366-17.407v0"/></g><g><path fill="#263238" d="M79.286 95.302l-14.371 6.054a.531.531 0 1 0 .413.979l14.371-6.054a.531.531 0 0 0-.413-.98z"/></g><g transform="rotate(-22.82 90.5 72.5)"><path fill="#bfbfbf" d="M89.36 71.916c0-.13.106-.236.236-.236h1.598c.13 0 .236.106.236.236v1.598c0 .13-.105.236-.236.236h-1.598a.236.236 0 0 1-.236-.236z"/><path fill="none" stroke="#263238" stroke-miterlimit="20" stroke-width=".5" d="M89.36 71.916c0-.13.106-.236.236-.236h1.598c.13 0 .236.106.236.236v1.598c0 .13-.105.236-.236.236h-1.598a.236.236 0 0 1-.236-.236z"/></g><g><path fill="#263238" d="M98.201 69.118l-5.748 2.421a.247.247 0 0 1-.315-.13.238.238 0 0 1 .126-.31l5.753-2.42a.238.238 0 0 1 .184.44z"/></g><g><path fill="#263238" d="M96.857 70.808l-3.997 1.68a.238.238 0 0 1-.184-.44l3.997-1.68a.238.238 0 0 1 .184.44z"/></g><g transform="rotate(-22.82 92 77)"><path fill="#757575" d="M91.16 76.196c0-.13.106-.236.236-.236h1.598c.13 0 .236.106.236.236v1.598c0 .13-.105.236-.236.236h-1.598a.236.236 0 0 1-.236-.236z"/><path fill="none" stroke="#263238" stroke-linecap="round" stroke-linejoin="round" stroke-miterlimit="20" stroke-width=".5" d="M91.16 76.196c0-.13.106-.236.236-.236h1.598c.13 0 .236.106.236.236v1.598c0 .13-.105.236-.236.236h-1.598a.236.236 0 0 1-.236-.236z"/></g><g><path fill="#263238" d="M100.003 73.392l-5.748 2.416a.243.243 0 1 1-.184-.45l5.748-2.42a.243.243 0 0 1 .184.45z"/></g><g><path fill="#263238" d="M98.65 75.083l-3.992 1.684a.244.244 0 0 1-.189-.45l3.997-1.679a.243.243 0 0 1 .184.45z"/></g><g><path fill="#263238" d="M107.561 91.013l-46.706 19.653a.531.531 0 0 0 .413.979l46.707-19.657a.53.53 0 1 0-.414-.975z"/></g><g><path fill="#263238" d="M109.048 94.528l-54.31 22.855a.53.53 0 1 0 .413.975l54.306-22.855a.53.53 0 1 0-.409-.975z"/></g><g><path fill="#263238" d="M110.523 98.043l-54.305 22.855a.53.53 0 1 0 .413.974l54.297-22.854a.53.53 0 1 0-.414-.975z"/></g><g><path fill="#263238" d="M112.008 101.566l-54.305 22.837a.53.53 0 1 0 .409.975l54.305-22.855a.53.53 0 1 0-.409-.975z"/></g><g><path fill="#263238" d="M90.674 114.682l-31.496 13.257a.53.53 0 1 0 .413.975l31.496-13.253a.531.531 0 1 0-.413-.98z"/></g><g><path fill="#bfbfbf" d="M73.332 46.12s.606 4.77-1.168 5.515c-1.621.683-3.759-1.873-5.618-1.091-1.86.781-.396 7.54-2.192 8.299-1.796.759-3.966-2.02-5.515-1.37-1.55.651-.61 4.132-2.21 4.801-1.32.557-3.206-2.205-4.715-2.811a1.145 1.145 0 0 0-.898-.045c-1.581.665-.795 7.922-2.16 8.497a2.506 2.506 0 0 1-1.213.198 9.063 9.063 0 0 0-1.54-.144 1.94 1.94 0 0 0-.575.148c-1.163.49-1.006 4.311-2.07 4.756-1.065.445-2.116-.103-3.252.373-1.136.476-1.118 2.465-2.816 3.18l.719 1.701L79.493 60.72"/><path fill="none" stroke="#263238" stroke-miterlimit="20" stroke-width=".5" d="M73.332 46.12v0s.606 4.77-1.168 5.515c-1.621.683-3.759-1.873-5.618-1.091-1.86.781-.396 7.54-2.192 8.299-1.796.759-3.966-2.02-5.515-1.37-1.55.651-.61 4.132-2.21 4.801-1.32.557-3.206-2.205-4.715-2.811a1.145 1.145 0 0 0-.898-.045c-1.581.665-.795 7.922-2.16 8.497a2.506 2.506 0 0 1-1.213.198 9.063 9.063 0 0 0-1.54-.144 1.94 1.94 0 0 0-.575.148c-1.163.49-1.006 4.311-2.07 4.756-1.065.445-2.116-.103-3.252.373-1.136.476-1.118 2.465-2.816 3.18l.719 1.701v0L79.493 60.72v0"/></g><g><path fill="#adc7f7" d="M76.005 52.48s.377 2.308-.534 2.695c-.76.318-1.226-.126-2.026-.153a2.632 2.632 0 0 0-1.136.22c-.732.305-.898 1.293-1.037 2.353-.162 1.307-.243 2.726-1.2 3.144-.669.283-1.392.117-2.137-.144-1.19-.413-2.439-1.069-3.647-.561-.584.247-.992.898-1.311 1.666-.75 1.855-.984 4.54-1.797 4.882-1.154.49-3.27-1.496-4.293-1.065-1.024.432-.606 2.21-1.437 2.56-.831.35-1.307-.682-2.771-.067s-.75 2.78-2.816 3.651-2.973-.732-4.967.108c-1.994.84-1.635 2.358-3.045 2.95-1.41.593-2.003-.449-3.009 0-1.006.45-1.249 2.017-1.262 2.116l.552 1.311 41.363-17.42"/><path fill="none" stroke="#263238" stroke-miterlimit="20" stroke-width=".5" d="M76.005 52.48v0s.377 2.308-.534 2.695c-.76.318-1.226-.126-2.026-.153a2.632 2.632 0 0 0-1.136.22c-.732.305-.898 1.293-1.037 2.353-.162 1.307-.243 2.726-1.2 3.144-.669.283-1.392.117-2.137-.144-1.19-.413-2.439-1.069-3.647-.561-.584.247-.992.898-1.311 1.666-.75 1.855-.984 4.54-1.797 4.882-1.154.49-3.27-1.496-4.293-1.065-1.024.432-.606 2.21-1.437 2.56-.831.35-1.307-.682-2.771-.067s-.75 2.78-2.816 3.651-2.973-.732-4.967.108c-1.994.84-1.635 2.358-3.045 2.95-1.41.593-2.003-.449-3.009 0-1.006.45-1.249 2.017-1.262 2.116l.552 1.311v0l41.363-17.42v0"/></g><g><path fill="none" stroke="#263238" stroke-linecap="round" stroke-linejoin="round" stroke-miterlimit="20" stroke-width=".5" d="M29.73 58.23v0l8.376 19.9v0L81.413 59.9v0"/></g><g><path fill="#263238" d="M67.768 67.932l-14.372 6.054a.53.53 0 1 0 .409.979l14.371-6.054a.531.531 0 0 0-.413-.98z"/></g><g transform="rotate(-22.82 78 44)"><path fill="#bfbfbf" d="M77.24 43.126c0-.13.106-.236.236-.236h1.598c.13 0 .236.106.236.236v1.598c0 .13-.105.236-.236.236h-1.598a.236.236 0 0 1-.236-.236z"/><path fill="none" stroke="#263238" stroke-miterlimit="20" stroke-width=".5" d="M77.24 43.126c0-.13.106-.236.236-.236h1.598c.13 0 .236.106.236.236v1.598c0 .13-.105.236-.236.236h-1.598a.236.236 0 0 1-.236-.236z"/></g><g><path fill="#263238" d="M86.09 40.328l-5.748 2.42a.247.247 0 0 1-.314-.13.238.238 0 0 1 .13-.31l5.748-2.42c.122-.05.26.008.31.13a.234.234 0 0 1-.126.31z"/></g><g><path fill="#263238" d="M84.732 42.022l-3.997 1.68a.243.243 0 0 1-.184-.45l3.997-1.684c.12-.05.258.006.31.126a.243.243 0 0 1-.126.328z"/></g><g transform="rotate(-22.82 80 48)"><path fill="#adc7f7" d="M79.04 47.406c0-.13.106-.236.236-.236h1.598c.13 0 .236.106.236.236v1.598c0 .13-.105.236-.236.236h-1.598a.236.236 0 0 1-.236-.236z"/><path fill="none" stroke="#263238" stroke-miterlimit="20" stroke-width=".5" d="M79.04 47.406c0-.13.106-.236.236-.236h1.598c.13 0 .236.106.236.236v1.598c0 .13-.105.236-.236.236h-1.598a.236.236 0 0 1-.236-.236z"/></g><g><path fill="#263238" d="M87.888 44.598l-5.749 2.421a.238.238 0 0 1-.31-.13.233.233 0 0 1 .126-.31l5.749-2.42a.243.243 0 0 1 .184.448z"/></g><g><path fill="#263238" d="M86.53 46.297l-3.992 1.68a.244.244 0 0 1-.189-.45l3.997-1.679a.243.243 0 0 1 .184.45z"/></g><g opacity=".2"><path fill-opacity=".7" d="M62.339 135.302l-6.23 2.623L44.37 110.03a6.912 6.912 0 0 0 1.963-3.849c.7-3.736.206-15.75 9.561-16.99 9.355-1.239 1.464 19.797 1.895 23.803.395 3.656 5.726 14.268 4.55 22.307z"/></g></g><g><path fill="none" stroke="#263238" stroke-linecap="round" stroke-linejoin="round" stroke-miterlimit="20" stroke-width=".5" d="M122.77 109.868v0L62.34 135.3v0l-6.229 2.623v0l-11.74-27.894v0L17.11 45.255v0L83.77 17.2v0l39 92.668v0z"/></g><g><path fill="#fff" d="M58.573 114.526c1.05-3.593 5.146-15.1 4.607-20.188a5.115 5.115 0 0 0-.287-1.24c-1.437-3.799-7.311-3.43-9.57-.282-2.475 3.463-4.491 9.696-4.671 13.473a11.744 11.744 0 0 1-1.796 5.326c-.353.593-.751 1.157-1.19 1.689L32.272 81.53a18.121 18.121 0 0 0-3.507 3.912c-.547.818-.9 1.75-1.033 2.726-.274 3.134-3.822 16.028-5.282 21.417-.031.117-.063.23-.09.337-1.419 5.219 2.327 24.602 1.253 30.234-1.073 5.631-1.733 5.501-1.89 9.503-.113 2.919-4.29 11.793-8.982 20.905a750.785 750.785 0 0 1-7.882 14.82l34.275-1.423c.593-4.163 1.204-8.56 1.76-12.817a47.48 47.48 0 0 1 1.025-5.26c.754-3.053 1.675-5.815 2.245-7.432a69.055 69.055 0 0 0 1.797-7.226c3.988-4.221 9.215-10.855 10.729-15.346v-.031c.37-.923.488-1.927.341-2.91a13.316 13.316 0 0 1-.274-2.452c-.175-4.878.934-12.975 1.815-15.961z"/></g><g opacity=".4"><path fill="#adc7f7" d="M46.87 111.64c-1.064 2.133-2.343 4.204-3.143 6.593-.8 2.39-1.693 2.73-4.091 4.603-2.398 1.873-4.15-1.212-4.15-1.212s3.175-3.297 2.12-5.133c-1.056-1.837-5.008-6.405-4.774-8.924.233-2.52-2.394-8.17-2.394-8.17s5.987-3.516 4.824-7.634c-.634-2.246-3.768-4.64-6.472-6.341a18.121 18.121 0 0 1 3.507-3.912L45.7 113.315c.432-.527.824-1.087 1.172-1.675z"/></g><g opacity=".4"><path fill="#adc7f7" d="M25.146 131.138c.081.27 2.03 6.705.386 9.386-1.643 2.681-3.332 6.238-2.528 9.88.638 2.91-4.751 13.42-10.244 20.165 4.68-9.112 8.856-17.986 8.982-20.906.157-4.001.817-3.88 1.89-9.503 1.074-5.622-2.694-25.015-1.252-30.233.027-.108.058-.22.09-.337 1.046 5.915 3.48 17.695 4.15 21.48.821 4.833-1.402.27-1.474.068z"/></g><g opacity=".4"><path fill="#adc7f7" d="M37.47 169.99c3.984-17.152 17.39-30.302 19.204-34.11-1.514 4.491-6.737 11.124-10.73 15.346a69.053 69.053 0 0 1-1.796 7.226c-.561 1.617-1.482 4.379-2.245 7.432-3.876 4.595-4.433 4.105-4.433 4.105z"/></g><g opacity=".4"><path fill="#adc7f7" d="M58.579 114.526c-.898 2.986-1.99 11.084-1.819 15.947-.705-3.054-2.061-6.934-2.286-12.336-.382-9.162 4.81-5.857 3.014-10.388-1.797-4.532-6.97 1.27-4.429-8.282 1.855-6.974 7.141-6.911 9.854-6.368.147.4.243.816.287 1.24.526 5.088-3.57 16.594-4.621 20.187z"/></g><g><path fill="none" stroke="#263238" stroke-linecap="round" stroke-linejoin="round" stroke-miterlimit="20" stroke-width=".5" d="M10.08 175.928c4.293-7.855 8.475-15.934 11.479-24.647.36-1.253-.121-2.888.243-4.14 4.068-11.314-.548-23.094.21-34.685.643-4.567 2.102-9.162 3.589-13.774.687-3.328.943-7.055 2.043-10.405 1.132-2.524 2.246-5.457 4.658-6.737 4.58 10.496 9.143 21.04 13.4 31.805 1.927-1.113 2.246-3.592 2.56-5.68 1.034-5 2.08-9.58 3.97-13.788 1.923-3.382 6.818-4.824 9.823-2.062a4.707 4.707 0 0 1 1.374 3.247c-.584 5.803-2.407 11.677-4.244 17.102-.723 2.506-1.46 4.604-1.77 7.092.032.826.05 1.235.086 2.06-1.065 4.173-.086 7.847-.328 11.987-.93 7.469-6.907 12.67-11.228 18.216-1.069 4.172-2.133 8.344-3.593 12.534-1.796 6.288-2.37 12.485-2.986 18.526"/></g><g><path fill="none" stroke="#263238" stroke-linecap="round" stroke-linejoin="round" stroke-miterlimit="20" stroke-width=".5" d="M45.679 113.33a27.804 27.804 0 0 0-1.976 4.904c-.562 2.2-3.404 1.886-4.873 3.252"/></g><g><path fill="none" stroke="#263238" stroke-linecap="round" stroke-linejoin="round" stroke-miterlimit="20" stroke-width=".5" d="M34.96 109.46v0s3.867 1.347 6.121 3.121c2.255 1.774 3.916 2.187 3.916 2.187v0"/></g><g><path fill="none" stroke="#263238" stroke-linecap="round" stroke-linejoin="round" stroke-miterlimit="20" stroke-width=".5" d="M32.49 99.863v0s3.144.876 5.434-.224c.105-1.12.301-2.23.588-3.319"/></g><g><path fill="none" stroke="#263238" stroke-linecap="round" stroke-linejoin="round" stroke-miterlimit="20" stroke-width=".5" d="M38.67 100.1s.031.449 1.621.449"/></g><g><path fill="none" stroke="#263238" stroke-linecap="round" stroke-linejoin="round" stroke-miterlimit="20" stroke-width=".5" d="M45.944 151.22a21.314 21.314 0 0 0-4.904 7.76"/></g><g><path fill="none" stroke="#263238" stroke-linecap="round" stroke-linejoin="round" stroke-miterlimit="20" stroke-width=".5" d="M22.165 110.89c-.144 2.695 3.018 12.252 3.974 17.003.957 4.751 1.32 8.11 1.32 8.11v0"/></g></g></g></g></svg>